<svg xmlns="http://www.w3.org/2000/svg" width="112.526" height="21.645" fill="none"><path fill="#FFF" d="M21.87 17.81a2.49 2.49 0 0 0-.69-.72c-.27-.2-.58-.33-.91-.4a4.862 4.862 0 0 1-3.02-2.16 4.857 4.857 0 0 1-.62-3.66c.11-.49.07-.99-.11-1.46-.17-.46-.48-.86-.89-1.15-.4-.29-.89-.45-1.38-.47-.5-.01-.99.12-1.41.38-.42.26-.76.64-.97 1.1a2.54 2.54 0 0 0 .44 2.75c.34.37.78.63 1.26.74a4.92 4.92 0 0 1 3.05 2.16c.34.54.57 1.15.68 1.78.11.63.09 1.27-.05 1.9-.09.4-.07.82.04 1.21.11.4.32.76.61 1.06.28.29.64.52 1.03.64.39.13.8.16 1.21.09.4-.06.79-.23 1.11-.48.33-.25.59-.58.76-.96.17-.37.25-.78.22-1.19-.02-.41-.15-.81-.36-1.16Z"/><path fill="#FFF" d="M6.36 15.01c.44.24.95.34 1.45.3.5-.05.97-.25 1.36-.57.39-.31.67-.74.82-1.22.14-.49.14-1-.01-1.48a4.9 4.9 0 0 1 .34-3.72c.3-.56.71-1.06 1.2-1.47.49-.41 1.06-.72 1.67-.91a2.515 2.515 0 0 0 1.47-3.6c-.24-.44-.6-.8-1.04-1.03a2.46 2.46 0 0 0-1.43-.28c-.5.05-.97.24-1.35.56-.39.31-.67.73-.81 1.21-.15.48-.15.98-.01 1.46a4.863 4.863 0 0 1-3.21 6.07c-.48.14-.91.42-1.24.81-.32.39-.52.86-.57 1.37-.04.5.06 1.01.3 1.45.24.44.61.8 1.06 1.03v.02Z"/><path fill="#FFF" d="M12.85 14.6c-.33.01-.66.09-.97.23-.3.14-.57.34-.8.59-.88.94-2.09 1.49-3.38 1.54a4.89 4.89 0 0 1-3.48-1.3 2.524 2.524 0 0 0-1.82-.68c-.41.02-.81.14-1.17.35-.35.21-.65.51-.86.86-.22.35-.34.75-.37 1.16-.03.41.05.82.22 1.19.17.38.43.71.75.96.33.25.71.42 1.12.49.4.07.82.04 1.21-.09s.75-.35 1.03-.65c.44-.47.96-.85 1.54-1.11a4.93 4.93 0 0 1 1.85-.45c.64-.02 1.28.08 1.88.3.61.22 1.16.56 1.63 1 .3.28.67.47 1.07.57.4.1.82.11 1.22.01s.77-.3 1.08-.57c.3-.27.54-.62.68-1.01.15-.38.19-.8.14-1.21-.06-.4-.21-.79-.45-1.13-.24-.33-.56-.61-.93-.79-.37-.18-.78-.27-1.19-.26Z"/><path fill="#FFF" fill-rule="evenodd" d="M97.1 2.08c0-.81-.36-1.42-1.08-1.81-.32-.18-.65-.27-1-.27-.8 0-1.4.36-1.81 1.08q-.14.26-.2.54-.05.23-.05.46c0 .82.36 1.41 1.08 1.78.32.17.64.25.98.25.81 0 1.42-.34 1.81-1.03.18-.31.27-.65.27-1ZM41.43 17.27q.31-.31.46-.77c.11-.37.2-.85.25-1.42l-.72-.03c-.11 1.28-.44 1.93-.97 1.95q-.1-.01-.18-.05-.44-.21-.44-1.34V9.79q0-1.84-.9-2.93-.81-.98-2.33-1.35-.83-.2-1.8-.2-3.79 0-4.76 1.64-.15.25-.21.52-.04.18-.04.37 0 .56.27.9.25.33.76.47.25.08.53.08.56 0 .95-.26.44-.29.66-.91c.04-.11.09-.3.17-.56.2-.74.46-1.2.78-1.39q.3-.14.69-.14.49 0 .84.23.57.37.75 1.36.11.58.11 1.39v1.81c-4.77.09-7.16 1.35-7.18 3.79q0 1.38.68 2.21.53.65 1.49.96c.43.13.9.19 1.42.19q1.48 0 2.47-.69.59-.42 1.01-1.09c.15-.24.27-.49.36-.75q.33 1.36 1.2 2 .65.47 1.61.53 1.4 0 2.07-.7ZM61.4 5.31c-2.28 0-4.03.78-5.26 2.34-.85 1.11-1.28 2.41-1.28 3.89q0 2.02.89 3.5.5.82 1.28 1.49.64.53 1.37.87 1.24.57 2.75.57c2.19 0 3.91-.79 5.15-2.36q.58-.75.92-1.6.47-1.17.47-2.52 0-1.98-.89-3.41-.51-.82-1.31-1.46C64.36 5.75 63 5.31 61.4 5.31Zm12.83 11.66h.5c.11 0 .21.01.31.03q.07.01.13.05.23.14.23.64h-6.32v-.72c.15 0 .29-.01.42-.03q.56-.06.85-.37.35-.36.35-1.05V6.45h-1.62v-.72h4.95l.14 2.03c.82-1.61 2.12-2.43 3.9-2.45.3 0 .59.04.89.11 1.13.34 1.92 1.16 2.37 2.48.89-1.71 2.23-2.57 4.03-2.59.65 0 1.25.18 1.81.53 1.21.76 1.81 2.05 1.81 3.87v7.26h.92c.11 0 .22.01.33.03.24.04.36.27.36.69h-6.34v-.72c.29 0 .53-.03.69-.08.36-.15.53-.61.53-1.37V9.37c0-.46-.05-.89-.16-1.28-.3-.94-.85-1.42-1.65-1.42-.18 0-.37.04-.55.12-.88.37-1.38 1.32-1.51 2.86v7.32h.48c.11 0 .22.01.33.03.24.04.36.27.36.69h-5.9v-.72c.3 0 .53-.03.7-.08.35-.15.53-.61.53-1.37V9.37q0-.75-.2-1.36c-.29-.85-.79-1.28-1.47-1.28-.24 0-.48.06-.73.19-.85.45-1.33 1.41-1.44 2.87l-.03 7.18Zm-26.24 0h2.06c.11 0 .21.01.3.03q.08.01.14.05.22.14.22.64h-7.87v-.72c.24 0 .45-.02.64-.06.65-.11.97-.57.97-1.39V6.45h-1.61v-.72h4.87l.19 2.59c.21-.52.5-1.01.89-1.45q.85-.88 1.87-1.19.56-.17 1.17-.17c.24 0 .47.02.69.08.91.24 1.37.82 1.37 1.75 0 .26-.06.51-.17.75q-.25.57-.69.83-.38.23-.9.23c-.22 0-.42-.03-.61-.08-.39-.15-.75-.52-1.08-1.12-.25-.42-.47-.64-.67-.64-.11 0-.23.03-.36.09q-1.23.64-1.42 3.56v6.01Zm49.89 0h-1.03V5.73h-5.14v.72h1.61v9.07c0 .82-.32 1.28-.97 1.39-.19.04-.4.06-.64.06v.72h6.84c0-.42-.12-.65-.36-.69-.09-.02-.19-.03-.31-.03Zm5.57.72h-4.2c0-.13.01-.25.02-.36.04-.2.19-.31.45-.33.56-.09 1.03-.37 1.42-.84l3.28-4.03-3.78-5.68h-1.28v-.72h6.46v.72h-1.54l2.45 3.7 2.87-3.7h-1.81v-.72h4.12c0 .13-.01.25-.03.36-.05.18-.22.3-.5.33-.57.06-1.05.34-1.42.84l-2.75 3.59 4.06 6.12h.56c.09 0 .17.01.25.03.29.04.44.27.44.69h-6.43v-.72h1.53l-2.78-4.17-3.34 4.17h1.95v.72Zm-44.78-6.03c0-2.6.32-4.26.95-4.99.39-.42.94-.64 1.64-.64 1.19 0 1.95.61 2.28 1.81.23.78.34 2.02.34 3.7 0 2.71-.36 4.42-1.06 5.12q-.16.15-.33.26-.53.33-1.26.33c-1.15 0-1.89-.59-2.22-1.78-.23-.8-.34-2.07-.34-3.81Zm-25.1 4.96q-.81-.47-.83-2.32c0-1.23.5-2.02 1.5-2.39q.81-.25 2.06-.31v2.7q-.51 1.89-1.63 2.36-.03.02-.07.03-.25.09-.44.09-.33-.02-.59-.16Z"/></svg>