<svg xmlns="http://www.w3.org/2000/svg" width="71.492" height="21.546" fill="none"><path fill="#FFF" d="M13.25 4.97c-2.74 0-8.24-2.23-8.24-4.97h-.04a8.281 8.281 0 0 0 8.28 8.28 4.983 4.983 0 0 1 4.98 4.97 4.983 4.983 0 0 1-4.97 4.98 4.983 4.983 0 0 1-4.98-4.97c0-1.09-.21-2.17-.63-3.18-.42-1-1.03-1.91-1.8-2.68a8.266 8.266 0 0 0-2.68-1.8A8.261 8.261 0 0 0 0 4.97v.04c2.74 0 4.97 5.5 4.97 8.24 0 1.64.48 3.25 1.39 4.61a8.34 8.34 0 0 0 3.72 3.05c1.52.63 3.18.79 4.79.47a8.27 8.27 0 0 0 4.24-2.27 8.23 8.23 0 0 0 2.27-4.24 8.27 8.27 0 0 0-.47-4.79 8.34 8.34 0 0 0-3.05-3.72 8.295 8.295 0 0 0-4.61-1.39Z"/><path fill="#FFF" fill-rule="evenodd" d="M29.65 20.36c0 .25.23.49.49.49h1.29c.31 0 .72-.11.72-.49v-7.67h4.91v7.67c0 .25.23.49.49.49h1.46c.26 0 .49-.24.49-.49v-9.31c0-.26-.23-.49-.49-.49h-6.86V7.37c0-1.77 1.08-2.52 2.13-2.52 1.13 0 2.44.7 2.68.82.28.16.51.18.66-.12l.65-1.16c.13-.21.08-.52-.13-.64-.54-.34-2.14-1.16-3.86-1.16-2.54 0-4.63 1.72-4.63 4.78v3.19h-1.21a.47.47 0 0 0-.48.49v1.16c0 .25.2.48.48.48h1.21v7.67Zm33.36 0c0 .25.23.49.49.49h1.46c.26 0 .49-.24.49-.49V3.33c0-.25-.23-.49-.49-.49H63.5c-.26 0-.49.24-.49.49v17.03Zm8.48-15.48a1.5 1.5 0 0 1-1.52 1.49c-.82 0-1.47-.67-1.47-1.49 0-.85.65-1.52 1.47-1.52.85 0 1.52.67 1.52 1.52ZM42.84 20.36c0 .25.24.49.49.49h1.24c.41 0 .69-.05.69-.49v-6.53c.1-.18.82-1.26 2.32-1.26.33 0 .72.1.87.18.23.1.49.05.62-.24l.61-1.26c.29-.69-.9-.95-1.87-.95-1.88 0-2.83 1.24-3.01 1.49l-.28-.87c-.06-.21-.26-.36-.44-.36h-.75c-.25 0-.49.23-.49.49v9.31Zm12.99.74c-3.11 0-5.17-2.44-5.17-5.4 0-2.9 2.06-5.4 5.15-5.4 2.67 0 4.73 2.01 4.73 4.76 0 .18-.03.51-.05.69-.03.26-.24.44-.47.44h-6.99c.07 1.39 1.28 2.75 2.96 2.75.92 0 1.77-.41 2.28-.74.31-.18.49-.29.7-.03l.72.98c.18.2.26.41-.05.67-.75.64-2.09 1.28-3.81 1.28Zm13.44-.25c-.25 0-.48-.24-.48-.49v-9.31c0-.26.23-.49.48-.49h1.47c.26 0 .49.23.49.49v9.31c0 .25-.23.49-.49.49h-1.47Zm-13.49-8.57c-1.39 0-2.47 1.01-2.62 2.29h4.99c-.08-1.23-1.11-2.29-2.37-2.29Z"/></svg>