<svg xmlns="http://www.w3.org/2000/svg" width="122.237" height="20.456" fill="none"><path fill="#FFF" d="M118.26 16.65c-.39-.44-.72-.93-.98-1.45-.42-.83-1-1.56-1.7-2.16-.7-.59-1.52-1.04-2.4-1.32-.76-.23-1.57-.34-2.37-.29.59-.04 1.16.15 1.61.53.45.37.74.9.82 1.49.21 1.26.77 2.44 1.61 3.4a6.86 6.86 0 0 0 3.13 2.05c1.39.43 2.88.4 4.25-.07a6.81 6.81 0 0 1-3.97-2.18ZM108.42 11.3c.18.78.49 1.52.93 2.19-.32-.48-.44-1.07-.34-1.65.09-.57.41-1.08.87-1.44a6.823 6.823 0 0 0 2.32-6.78A6.723 6.723 0 0 0 110.01 0c.55 1.45.58 3.04.09 4.51-.19.55-.45 1.08-.77 1.57-.5.76-.84 1.62-1.01 2.52-.16.9-.14 1.82.07 2.71l.03-.01ZM111.84 14.01c-.26.53-.7.93-1.24 1.14-.54.2-1.14.19-1.67-.03a6.645 6.645 0 0 0-3.69-.31c-1.23.24-2.37.83-3.29 1.7-1.05.99-1.77 2.3-2.04 3.73a6.77 6.77 0 0 1 5.56-2.49c.9.05 1.81-.09 2.66-.4.85-.31 1.63-.8 2.29-1.42.59-.55 1.07-1.2 1.43-1.92h-.01Z"/><path fill="#FFF" fill-rule="evenodd" d="M60.96 5.01h-3.27v-3.5h3.27v3.5Zm-5.78 15.17c-.53.08-1.07.12-1.62.12-1.54 0-2.73-.42-3.58-1.27-.84-.86-1.25-2.04-1.25-3.56v-6h-2.36V6.54h.25c.67 0 1.19-.18 1.56-.53.36-.35.55-.86.55-1.52V3.44H52v3.1h3.13v2.93H52v5.83c0 .68.19 1.21.55 1.57.37.37.96.55 1.76.55.26 0 .55-.02.87-.07v2.83Zm-51.91-.03H0V6.54h3.07v1.7c.35-.67.86-1.17 1.53-1.5q1-.5 2.28-.5 1.19 0 2.18.45.15.07.29.15.91.48 1.48 1.23.13.18.25.37.54-.85 1.31-1.37.22-.16.47-.28l.16-.08q1.04-.47 2.29-.47c.97 0 1.82.22 2.58.65.75.43 1.34 1.04 1.77 1.83q.03.04.06.09.62 1.12.62 2.58v8.76h-3.28v-7.98c0-.9-.24-1.61-.73-2.13q-.22-.26-.51-.43-.58-.37-1.39-.37-.74 0-1.3.32-.33.18-.6.48c-.48.54-.72 1.25-.72 2.13v7.98H8.53v-7.98c0-.9-.24-1.61-.73-2.13q-.23-.26-.51-.43-.58-.37-1.39-.37-.74 0-1.3.32-.33.18-.6.48-.1.11-.18.22-.55.76-.55 1.91v7.98Zm27.04-.48q-1.3.78-3.07.78-2.11 0-3.38-1.03l-.02-.02c-.85-.7-1.28-1.65-1.28-2.85 0-1.14.38-2.08 1.15-2.83.77-.75 1.95-1.26 3.55-1.53l4.06-.65v-.45q0-.39-.15-.73-.17-.4-.55-.72-.07-.06-.14-.11-.65-.49-1.66-.49c-.72 0-1.35.19-1.88.58-.54.36-.93.86-1.18 1.47l-2.67-1.3c.4-1.07 1.13-1.92 2.2-2.58q.32-.19.66-.35 1.35-.62 2.99-.62 1.68 0 2.93.62c.85.4 1.52.97 2 1.71.48.73.73 1.57.73 2.52v9.06h-3.11V18.7q-.53.58-1.18.97Zm36.96.48h-3.28V6.54h3.08v1.68c.36-.65.88-1.15 1.55-1.48q1.02-.5 2.3-.5c1 0 1.89.22 2.65.65.79.43 1.4 1.04 1.83 1.83.43.76.65 1.66.65 2.67v8.76h-3.28v-7.98c0-.9-.26-1.61-.77-2.13-.5-.53-1.16-.8-1.98-.8-.82 0-1.48.27-2 .8q-.13.14-.23.29-.52.74-.52 1.84v7.98Zm21.81-.6c-1.08.6-2.28.9-3.6.9-1.34 0-2.55-.31-3.66-.92a7.165 7.165 0 0 1-2.6-2.53c-.63-1.07-.95-2.29-.95-3.65 0-1.37.32-2.59.95-3.66a7.165 7.165 0 0 1 2.6-2.53c1.09-.61 2.31-.92 3.66-.92 1.33 0 2.54.31 3.63.92 1.08.62 1.94 1.46 2.57 2.53q.2.32.35.66.63 1.35.63 3 0 1.58-.58 2.9-.17.4-.4.77a7.165 7.165 0 0 1-2.6 2.53Zm-48.18.6h-3.28V6.54h3.08v1.93c.35-.79.84-1.33 1.48-1.63.63-.3 1.37-.45 2.2-.45h.8v2.9h-1.17c-.92 0-1.67.29-2.26.88q-.09.09-.17.18-.68.83-.68 2.22v7.58Zm20.06 0h-3.27V6.54h3.27v13.61Zm22.54-3.23c.58.35 1.24.53 1.98.53.73 0 1.37-.18 1.92-.53.57-.35 1.01-.83 1.33-1.45.33-.63.5-1.34.5-2.12 0-.79-.17-1.49-.5-2.11-.32-.61-.76-1.1-1.33-1.45-.55-.36-1.19-.55-1.92-.55-.74 0-1.4.19-1.98.55-.57.35-1.02.84-1.35 1.45q-.48.93-.48 2.11c0 .78.16 1.49.48 2.12.33.62.78 1.1 1.35 1.45Zm-55.61-2.3c-1.29.25-1.93.85-1.93 1.8 0 .47.18.85.53 1.13l.01.01q.52.39 1.34.39c1.03 0 1.87-.33 2.5-.98q.46-.46.71-1.02.27-.62.27-1.35v-.55l-3.43.57Z"/></svg>