<svg xmlns="http://www.w3.org/2000/svg" width="115.804" height="22.215" fill="none"><path fill="#FFF" fill-rule="evenodd" d="M2.56 0H-.01v21.8h2.57V10.89q0-1.21-.04-2.36-.03-1.15-.06-2.08-.06-1.05-.09-2.01h.06L13.87 21.8h2.56V0h-2.56v10.86q0 1.22.02 2.39.01 1.16.08 2.06.03 1.05.1 1.97H14L2.56 0Zm38.55 5.72V.92l-2.56.32v4.48h-2.93v2.07h2.93v9.24q0 2.78.85 3.99.1.14.22.26.88.93 2.74.93.9 0 1.8-.24.92-.24 1.97-.94l-.76-1.95q-1.6.86-2.82.9-.45 0-.73-.18-.29-.18-.46-.6-.15-.41-.2-1.11-.05-.7-.05-1.76V7.79h4.64V5.72h-4.64Zm7.78.29q.15 1.56.15 2.29v13.5h2.56V11.06q.54-.9 1.12-1.6.44-.58 1.05-1.09.61-.51 1.16-.51.41-.04 1.47.16l.57-2.47q-1.31-.18-2.04-.15-.55 0-1.14.39-.59.4-1.14.95-.54.54-1.12 1.28h-.03l-.25-2.33-2.36.32ZM27.48 21.69q1.29-.53 2.8-1.4l.32 1.76 2.46-.25q-.07-.52-.11-1-.05-.47-.07-.96-.02-.5-.02-.96v-7.67q0-1.15-.21-2.18-.18-.94-.66-1.69l-.1-.16q-.06-.08-.11-.16-.54-.71-1.46-1.14-1-.48-2.63-.48-1.22 0-2.27.11-1.06.11-1.85.27-.93.16-1.74.35l.52 2.21q.67-.2 1.46-.35.68-.13 1.54-.24.87-.12 1.79-.12 1.16 0 1.77.32.31.16.55.4.24.23.4.54.32.63.38 1.51.07.87.07 2-.52.03-1.44.08-.93.04-1.5.11-1.26.09-2.46.39-.11.03-.23.06-1.31.35-2.35.97-.89.54-1.49 1.3-.1.12-.19.25-.14.2-.25.42-.39.78-.39 1.76 0 2.27 1.14 3.33l.12.1q1.26 1.04 3.41 1.04 1.45 0 2.71-.49.04-.02.09-.03ZM59.17 9.76q-.76 1.62-.76 4.04 0 2.49.75 4.12.76 1.64 1.89 2.58.95.79 2.05 1.19.21.08.43.14 1.34.38 2.55.38 1.19 0 2.56-.4.14-.04.28-.09 1.22-.41 2.27-1.28 1.19-.98 1.97-2.64.79-1.66.79-4.19 0-2.43-.77-4.01-.77-1.58-1.92-2.53-.93-.75-1.98-1.14-.26-.09-.53-.17-1.36-.36-2.5-.36-1.22 0-2.58.39-.01.01-.02.01-1.35.4-2.52 1.37-1.18.97-1.96 2.59Zm18.32-3.75q.2 1.53.2 2.61V21.8h2.56V9.93q.86-.64 1.65-1.11.81-.48 1.7-.83.9-.36 1.73-.36.8 0 1.23.29.14.09.25.21.24.25.37.61.2.52.23 1.28.03.75.03 1.71V21.8H90V10q1.47-1.18 2.17-1.57.71-.38 1.36-.59.66-.21 1.39-.21.8 0 1.23.29.14.09.26.21.24.25.36.61.2.52.23 1.28.03.75.03 1.71V21.8h2.56V11.44q0-1.73-.22-2.87-.23-1.16-.75-1.86-.21-.3-.49-.53-.37-.3-.85-.48-.83-.3-2-.3-.47 0-.92.07-1.05.16-2.04.69-1.1.59-2.12 1.28-.31.2-.61.42-.45-1.34-1.37-1.89-.01-.01-.02-.01-.92-.56-2.52-.56-.24 0-.49.02-.74.06-1.46.33-.96.35-1.79.83-.83.48-1.69 1.12l-.35-2.01-2.41.32Zm32.73 15.68q1.29-.53 2.8-1.4l.32 1.76 2.46-.25q-.06-.52-.11-1-.05-.47-.07-.96-.02-.5-.02-.96v-7.67q0-1.15-.21-2.18-.18-.94-.65-1.69-.05-.08-.11-.16-.05-.08-.11-.16-.54-.71-1.45-1.14-1.01-.48-2.64-.48-1.22 0-2.27.11-1.06.11-1.85.27-.93.16-1.73.35l.51 2.21q.67-.2 1.47-.35.67-.13 1.54-.24.86-.12 1.78-.12 1.16 0 1.78.32.31.16.54.4.24.23.4.54.32.63.38 1.51.07.87.07 2-.51.03-1.44.08-.92.04-1.5.11-1.25.09-2.45.39l-.24.06q-1.31.35-2.34.97-.9.54-1.5 1.3-.1.12-.18.25-.14.2-.25.42-.39.78-.39 1.76 0 2.27 1.13 3.33l.12.1q1.27 1.04 3.41 1.04 1.45 0 2.71-.49.05-.02.09-.03Zm-47.71-3.23q-1.38-1.53-1.38-4.63 0-3.09 1.26-4.65.34-.41.75-.71 1.15-.84 2.91-.84 1.66 0 2.84.76.52.33.95.81 1.39 1.57 1.39 4.76 0 3.01-1.31 4.52-.36.41-.8.71-1.15.79-2.84.79-1.67 0-2.85-.76-.5-.31-.92-.76Zm-33.42-3.99q.58-.03 1.22-.06v3.65q-1.16.86-2.36 1.39-1.19.53-2.72.53-1.09 0-1.77-.53-.02-.02-.04-.03-.14-.12-.26-.26-.43-.54-.43-1.42 0-.86.39-1.46.22-.34.57-.6.96-.73 3.26-1.01.45-.07 1-.12l1.14-.08Zm82.74 0q.58-.03 1.22-.06v3.65q-1.15.86-2.35 1.39-1.2.53-2.73.53-1.09 0-1.77-.53-.02-.02-.04-.03-.14-.12-.25-.26-.44-.54-.44-1.42 0-.86.4-1.46.22-.34.56-.6.96-.73 3.27-1.01.44-.07 1-.12l1.13-.08Z"/></svg>