<svg xmlns="http://www.w3.org/2000/svg" width="129.898" height="27.207" fill="none"><path fill="#FFF" d="m14.76 4.65 1.03-1.03c2.03-2.03 5.34-2.08 7.38-.06a5.211 5.211 0 0 1 1.02 5.98c-.23.47-.31 1-.23 1.51.09.52.33.99.7 1.36a7.293 7.293 0 0 0 2.13-5.16c0-.96-.19-1.91-.56-2.79-.37-.89-.9-1.69-1.58-2.37-2.86-2.83-7.49-2.78-10.34.07l-9.85 9.85-.81-.81c-2.06-2.06-2.08-5.44.02-7.46.78-.75 1.77-1.24 2.84-1.4 1.07-.16 2.16.01 3.12.5.44.22.94.3 1.43.23.49-.08.94-.31 1.29-.66l.03-.02c0-.01.01-.02.01-.03.01-.01.01-.02.01-.03 0-.01 0-.02-.01-.03 0-.01-.01-.02-.01-.03A7.339 7.339 0 0 0 7.31.2a7.29 7.29 0 0 0-5.08 2.04C-.71 5.08-.7 9.79 2.19 12.68l9.85 9.85-1.05 1.05c-2.03 2.03-5.33 2.08-7.37.06a5.18 5.18 0 0 1-1.47-2.83c-.18-1.07-.03-2.18.45-3.16.23-.46.31-.99.22-1.5a2.45 2.45 0 0 0-.7-1.36c-.67.68-1.21 1.48-1.57 2.37-.37.88-.56 1.83-.55 2.79 0 .96.19 1.9.55 2.79.37.88.91 1.69 1.59 2.36 2.85 2.84 7.49 2.78 10.33-.06l9.87-9.87.81.82c2.03 2.03 2.08 5.33.06 7.37-.76.78-1.75 1.29-2.83 1.47-1.07.18-2.17.03-3.15-.45-.47-.23-1-.31-1.51-.22-.51.08-.99.33-1.36.7.68.67 1.49 1.21 2.37 1.57.89.37 1.83.56 2.79.55.96 0 1.91-.19 2.79-.55.89-.37 1.69-.91 2.37-1.59 2.83-2.85 2.78-7.49-.07-10.33l-9.85-9.86Zm-1.25 16.41-7.58-7.58 7.36-7.35 7.58 7.57-7.36 7.36Z"/><path fill="#FFF" fill-rule="evenodd" d="M39.37 22.39q-1.88 0-3.03-.92-.23-.19-.43-.41-1.19-1.33-1.33-3.63l2.4-.6q.13 2.64 1.36 3.34.44.25 1.03.25.9 0 1.35-.45.44-.44.44-1.34c0-.36-.05-.68-.15-.98a2.43 2.43 0 0 0-.43-.83q-.3-.39-.55-.61c-.16-.16-.38-.35-.66-.57l-2.99-2.39q-.17-.14-.32-.28-.6-.57-1-1.36-.48-1-.48-2.27 0-1.37.62-2.32.23-.34.52-.63.22-.2.47-.37 1.05-.72 2.58-.72 2.04 0 3.23 1c.81.66 1.3 1.6 1.49 2.81q.03.2.07.55l-2.4.59c0-.1-.02-.26-.04-.47-.11-.76-.35-1.37-.72-1.82q-.14-.18-.31-.31-.51-.39-1.32-.39-.74 0-1.19.37-.07.05-.14.12l-.08.1q-.38.46-.38 1.24 0 .55.18 1.04.29.74 1.01 1.32l2.99 2.39q1.62 1.31 2.15 2.97.25.79.25 1.66 0 1.4-.66 2.33-.21.3-.48.55-.13.11-.27.22-1.08.82-2.78.82Zm53.05 0c-1.51 0-2.66-.45-3.46-1.33-.79-.89-1.24-2.1-1.33-3.63l2.39-.6c.12 2.4.92 3.59 2.4 3.59 1.19 0 1.79-.6 1.79-1.79 0-.36-.05-.68-.15-.98-.09-.31-.24-.59-.44-.83-.2-.26-.38-.46-.54-.61-.16-.16-.38-.35-.66-.57l-2.99-2.39a4.74 4.74 0 0 1-1.32-1.64c-.33-.67-.49-1.42-.49-2.27 0-1.23.38-2.22 1.15-2.95.77-.72 1.78-1.09 3.05-1.09 1.36 0 2.43.33 3.23 1q.23.19.42.4.84.94 1.07 2.41c.02.14.04.32.06.55l-2.39.59c-.01-.1-.02-.26-.05-.47-.1-.76-.34-1.37-.72-1.82-.36-.47-.91-.7-1.62-.7-.58 0-1.02.17-1.33.49-.31.32-.47.76-.47 1.34 0 .94.4 1.73 1.2 2.36l2.99 2.39c1.6 1.29 2.39 2.84 2.39 4.63 0 1.23-.38 2.19-1.14 2.88-.75.69-1.77 1.04-3.04 1.04Zm9.15 0c-.94 0-1.63-.24-2.06-.72-.42-.48-.64-1.21-.65-2.18v-7.44h-1.2v-1.8h1.2V6.07h2.39v4.18h1.79v1.8h-1.79v6.98c0 .48.06.83.19 1.06.14.22.4.33.8.33.17 0 .44-.03.8-.09v1.94q-.89.12-1.47.12Zm-51.22 3.42v-4.67c-.35.37-.72.67-1.1.9-.38.23-.81.35-1.29.35-.46 0-.87-.12-1.24-.35-.35-.24-.64-.54-.86-.91-.21-.36-.38-.8-.53-1.3q-.2-.75-.29-1.48-.07-.73-.07-1.52v-1.82c0-.54.02-1.04.07-1.48l.04-.31q.08-.52.23-1.02.2-.66.52-1.1.08-.11.16-.21.29-.32.7-.52.53-.28 1.23-.28c.27 0 .52.03.75.11.24.07.46.18.67.34.22.15.39.29.51.41.12.11.29.28.5.5v-1.2h2.39v15.56h-2.39Zm15.63-3.42c-.67 0-1.24-.29-1.7-.86a3.02 3.02 0 0 1-.7-1.96c0-.58.1-1.1.29-1.58.2-.47.41-.85.63-1.13.22-.28.58-.58 1.09-.88.51-.3.9-.51 1.16-.62.26-.11.72-.3 1.37-.55.11-.05.19-.08.25-.11v-.86c0-.6-.08-1.07-.25-1.4-.17-.33-.49-.5-.95-.5-.41 0-.7.14-.88.43-.18.28-.28.67-.3 1.17-.01.06-.01.17-.01.3h-2.4c.02-1.14.34-2.06.97-2.73.63-.68 1.5-1.02 2.62-1.02s1.99.34 2.63 1.03c.64.69.96 1.6.96 2.72v5.39c0 1.24.1 2.24.31 2.99h-2.38l-.32-1.8c-.12.25-.23.45-.31.58-.07.14-.19.31-.34.52-.14.2-.29.35-.44.46-.15.11-.34.2-.56.28-.23.09-.47.13-.74.13Zm6.85-.17V10.25h2.39v1.6q.03-.06.07-.13.36-.63.99-1.1c.46-.36.98-.53 1.55-.53.02 0 .14.01.38.03v2.65a3.46 3.46 0 0 0-1.33-.26c-.49 0-.9.15-1.2.45-.31.29-.46.69-.46 1.18v8.08h-2.39Zm9.77.17c-.58 0-1.08-.1-1.51-.3-.42-.2-.76-.46-1.02-.78-.25-.32-.45-.73-.61-1.23-.15-.51-.26-1.01-.32-1.51q-.09-.75-.11-1.75-.01-.4-.01-.79t.01-.78c.02-.63.06-1.18.12-1.66q.1-.65.3-1.27.03-.07.05-.14c.16-.45.37-.83.63-1.12.26-.29.6-.53 1.01-.7.43-.18.92-.27 1.48-.27.51 0 .96.07 1.35.2.39.13.71.34.97.61.26.27.48.57.64.9.18.33.31.73.4 1.2.08.47.14.93.17 1.39.04.45.06.97.06 1.57v.28h-4.78v.98c-.01.15-.02.31-.02.47 0 .08 0 .16.01.25l.03.72c.02.23.05.46.11.68.05.21.12.4.2.56.08.16.2.29.34.38.15.1.32.14.52.14.25 0 .46-.04.62-.14.16-.1.28-.24.35-.44.08-.19.14-.38.17-.58.03-.19.05-.43.06-.72v-.51h2.37v.48c-.05 1.27-.37 2.24-.94 2.89-.58.66-1.46.99-2.65.99Zm28.24-1.13c-.56.75-1.48 1.13-2.76 1.13-1.28 0-2.2-.38-2.76-1.13q-.83-1.12-.83-3.23v-3.59q0-2.11.83-3.23c.56-.75 1.48-1.12 2.76-1.12 1.28 0 2.2.37 2.76 1.12.55.75.83 1.82.83 3.23v3.59c0 1.41-.28 2.49-.83 3.23Zm2.79.96V10.25h2.39v1.29c.36-.32.65-.57.87-.73.23-.18.54-.34.93-.49.4-.16.82-.23 1.27-.23q.43 0 .76.17.27.14.48.39c.32.37.48.83.48 1.37v10.2h-2.39v-8.97c0-.42-.06-.72-.18-.91-.12-.19-.36-.29-.72-.29-.21 0-.41.04-.62.13-.2.08-.35.16-.45.23-.1.07-.24.18-.43.34v9.47h-2.39Zm12.66.17c-.58 0-1.09-.1-1.52-.3-.42-.2-.76-.46-1.02-.78-.25-.32-.45-.73-.6-1.23a8.35 8.35 0 0 1-.33-1.51c-.06-.5-.09-1.09-.1-1.75q-.02-.4-.02-.79t.02-.78c.01-.63.05-1.18.12-1.66q.09-.65.3-1.27v-.01q.02-.06.04-.13c.17-.45.37-.83.63-1.12q.39-.44 1.02-.7.63-.27 1.47-.27c.52 0 .96.07 1.35.2.39.13.72.34.97.61.26.27.48.57.65.9.17.33.3.73.39 1.2q.13.7.18 1.39c.03.45.05.97.05 1.57v.28h-4.78v.98c-.01.15-.01.31-.01.47v.25c.01.24.02.48.04.72.01.23.04.46.1.68.05.21.12.4.2.56.09.16.2.29.34.38q.03.02.05.03.21.11.47.11c.25 0 .46-.04.62-.14.16-.1.28-.24.36-.44.08-.19.13-.38.16-.58.04-.19.05-.43.06-.72v-.51h2.37v.48c-.05 1.27-.37 2.24-.94 2.89-.57.66-1.45.99-2.64.99Zm-69.92 0c-.52 0-.94-.19-1.26-.56-.32-.37-.48-.83-.48-1.38v-10.2h2.39v9.47c0 .25.08.45.23.61.15.16.35.23.6.23q.15 0 .31-.03.03 0 .07-.01c.12-.03.25-.09.36-.16.13-.08.22-.15.29-.19.07-.05.17-.13.29-.24.13-.11.22-.18.25-.21v-9.47h2.39v11.97h-2.39v-1.29c-.24.2-.42.35-.53.45-.1.09-.27.22-.49.38-.23.16-.43.27-.6.35-.17.06-.38.13-.64.18-.25.06-.52.1-.79.1Zm-7.81-1.97c.63 0 1.22-.16 1.79-.48v-7.4c-.02-.02-.09-.05-.19-.12-.1-.06-.17-.1-.21-.12-.04-.02-.1-.06-.2-.11-.09-.05-.17-.08-.23-.1-.06-.03-.13-.05-.23-.08q-.13-.05-.26-.06c-.08-.02-.17-.02-.26-.02-.2 0-.38.04-.53.14-.15.09-.28.19-.38.32-.09.12-.18.3-.26.53-.07.23-.12.43-.15.62-.03.17-.05.41-.07.71-.02.29-.03.52-.04.68v2.52c.01.42.03.79.06 1.1.03.32.09.62.18.93.08.3.21.53.37.7.17.16.37.24.61.24Zm32.87-5.38h2.37v-.72q-.01-.48-.06-.83c-.03-.24-.08-.48-.16-.71-.08-.24-.2-.42-.36-.54-.16-.13-.36-.19-.6-.19s-.45.06-.62.2c-.16.13-.28.32-.36.57-.07.24-.13.48-.16.72-.03.23-.05.52-.05.85v.65Zm26.2 5.31c.13.05.28.07.45.07.17 0 .31-.02.44-.07q.2-.08.32-.18c.08-.07.16-.18.21-.32.06-.14.1-.27.13-.37.03-.11.06-.26.07-.46.01-.2.02-.35.02-.47 0-.11.01-.29.01-.52v-3.59c0-.23-.01-.4-.01-.51 0-.12-.01-.28-.02-.48a2.131 2.131 0 0 0-.2-.82.776.776 0 0 0-.21-.32c-.08-.07-.19-.14-.32-.19q-.19-.07-.44-.07c-.17 0-.32.02-.45.07-.12.05-.23.12-.32.19-.08.07-.15.18-.2.32-.06.14-.1.26-.13.36q-.05.16-.07.46c-.01.2-.02.36-.03.48v4.62c.01.12.02.27.03.47.01.2.04.35.07.46.03.1.07.23.13.37.05.14.12.25.2.32q.13.1.32.18Zm17.48-5.31h2.37v-.72q-.01-.48-.05-.83c-.04-.24-.09-.48-.17-.71-.08-.24-.2-.42-.36-.54-.16-.13-.36-.19-.6-.19s-.44.06-.61.2c-.16.13-.29.32-.37.57-.07.24-.12.48-.16.72-.03.23-.05.52-.05.85v.65Zm-57.94 5.38c.17 0 .33-.05.49-.15.16-.1.28-.19.36-.29.08-.09.18-.21.3-.37q.03-.05.05-.07v-3.3c-.1.06-.27.17-.5.31-.23.15-.41.27-.55.36-.13.09-.3.21-.49.37-.2.16-.35.31-.45.46-.11.14-.2.32-.28.53-.08.22-.12.44-.12.67 0 .99.4 1.48 1.19 1.48Z"/></svg>