<svg xmlns="http://www.w3.org/2000/svg" width="125.082" height="24.678" fill="none"><path fill="#FFF" d="m4.8 8.31 3.08-1.78-1.72-2.98h16.17l-8.08 14.01-1.72-2.98-3.08 1.78 4.8 8.31L28.49 0H0l4.8 8.31Z"/><path fill="#FFF" fill-rule="evenodd" d="m41.27 20.15 6.15-14.59h-2.94l-4.33 10.59-4.36-10.59h-2.94L39 20.15h2.27Zm9.63 0V5.56h10.76v2.58H53.7v3.34h6.81v2.58H53.7v3.51h8.07v2.58H50.9ZM65.78 5.56v14.59h2.79V15h3.4l3.06 5.15h3.11l-3.34-5.63c1.69-.75 2.78-2.35 2.78-4.25 0-1.34-.48-2.46-1.46-3.36-.96-.9-2.15-1.35-3.59-1.35h-6.75Zm19.83 14.59V8.14h-4.84V5.56h12.49v2.58h-4.83v12.01h-2.82ZM97.07 5.56v14.59h10.86v-2.58h-8.07v-3.51h6.82v-2.58h-6.82V8.14h7.97V5.56H97.07Zm13.85 14.59 5.42-7.44-5.21-7.15h3.36l3.52 4.85 3.52-4.85h3.34l-5.19 7.15 5.4 7.44h-3.34L118.01 15l-3.73 5.15h-3.36ZM72.53 8.14c1.23 0 2.13.9 2.13 2.13s-.9 2.15-2.13 2.15h-3.96V8.14h3.96Z"/></svg>