<svg xmlns="http://www.w3.org/2000/svg" width="130.123" height="25.944" fill="none"><path fill="#FFF" d="m3.89 5.92 1.51.75a1.952 1.952 0 0 0 1.74-.09l1.43-.93c.24-.18.44-.41.58-.68.14-.27.21-.57.21-.88l-.09-1.7c-.03-.3-.14-.59-.3-.84-.17-.25-.39-.46-.65-.62L6.81.16C6.53.04 6.23-.02 5.93 0c-.3.01-.6.1-.86.25l-1.43.93c-.24.18-.44.41-.58.68-.14.27-.21.57-.21.87l.09 1.7c.03.31.13.6.3.86.16.26.39.47.65.63ZM12.99 8.12l-1.51-.77c-.27-.13-.57-.18-.88-.16-.3.01-.59.1-.85.25l-1.45.93c-.24.18-.44.41-.58.68-.13.27-.21.57-.21.87l.09 1.7c.04.3.14.59.3.85.17.25.39.46.65.61l1.51.76c.28.12.58.18.88.16.3-.02.6-.1.86-.25l1.43-.93c.24-.18.44-.42.58-.69.14-.27.21-.57.21-.87l-.09-1.7a1.937 1.937 0 0 0-.94-1.44ZM17.65 15.29l-1.51-.75c-.28-.12-.58-.18-.88-.16-.3.01-.6.1-.86.25l-1.43.93c-.24.18-.44.41-.58.68-.14.27-.21.57-.21.87l.09 1.7c.04.3.14.58.3.83.17.25.39.46.64.61l1.51.76c.28.12.58.17.88.15.31-.01.6-.1.86-.25l1.43-.93c.25-.18.45-.41.58-.68.14-.27.21-.57.21-.87l-.08-1.67c-.03-.3-.13-.59-.3-.85a2.03 2.03 0 0 0-.65-.62Z"/><path fill="#FFF" d="m6.53 11.07-.07-1.32c0-.31.07-.61.21-.88.14-.27.34-.5.58-.68l2.78-1.81c.26-.15.56-.23.86-.25.3-.02.6.04.88.16l1.19.6c.27.13.58.18.88.17.3-.02.6-.11.86-.26l1.42-.93c.25-.18.45-.41.59-.68.13-.27.21-.57.21-.87l-.09-1.7c-.04-.3-.14-.59-.3-.85-.17-.25-.39-.46-.65-.61L14.37.38a2.07 2.07 0 0 0-.89-.16c-.3.02-.59.11-.86.26l-1.45.91a1.9 1.9 0 0 0-.58.68c-.14.27-.21.57-.21.87l.07 1.33c0 .3-.07.6-.21.87-.14.27-.34.5-.58.68L6.88 7.63c-.26.15-.56.24-.86.25-.3.02-.61-.04-.88-.16l-1.18-.6c-.28-.12-.58-.18-.89-.16-.3.01-.59.1-.86.25l-1.42.93c-.25.18-.45.41-.58.68-.14.27-.21.57-.21.87l.09 1.7c.03.31.13.59.3.85.16.25.38.47.65.62l1.5.75c.28.12.58.18.89.16.3-.02.59-.1.86-.25l1.42-.93c.25-.17.45-.4.59-.66.14-.27.22-.56.23-.86ZM21.47 9.79c-.04-.3-.14-.59-.31-.84-.16-.25-.38-.47-.64-.62l-1.51-.75c-.28-.12-.58-.18-.89-.16-.3.01-.59.1-.86.25l-1.42.93c-.25.18-.45.41-.58.68-.14.27-.21.57-.21.87l.07 1.33c0 .3-.08.6-.21.87-.14.27-.34.51-.58.68l-2.78 1.81c-.26.15-.56.24-.86.25-.3.02-.61-.04-.88-.16l-1.19-.6c-.28-.12-.58-.18-.88-.16-.3.02-.59.1-.86.25l-1.44.93c-.24.18-.44.41-.58.68-.14.27-.21.57-.21.87l.09 1.7c.03.3.14.59.3.85.17.25.39.46.65.61l1.51.78c.28.12.58.17.88.16.3-.02.6-.1.86-.26l1.43-.92c.24-.18.44-.42.58-.69.14-.27.21-.56.21-.87l-.07-1.33c0-.3.07-.6.21-.87.14-.27.34-.5.58-.68l2.78-1.81c.26-.15.55-.23.86-.25.3-.01.6.04.88.16l1.18.6c.28.13.58.18.88.17.31-.02.6-.11.86-.26l1.43-.93c.25-.17.45-.41.58-.68.14-.27.21-.57.21-.87l-.07-1.72Z"/><path fill="#FFF" fill-rule="evenodd" d="M47.14 5.8c-.78 0-1.45-.25-2-.73q-.42-.4-.62-.89-.18-.43-.18-.94 0-.47.17-.88.21-.51.68-.92.46-.38.98-.56.46-.16.97-.16.65 0 1.19.23.43.19.79.52.55.48.75 1.08.1.33.1.69c0 .74-.28 1.35-.85 1.83q-.41.35-.89.53-.51.2-1.09.2ZM26.53 2.99h5.66l2.65 10.74 2.65-10.74h5.9l-5.37 17.22h-6.38L26.53 2.99Zm27.15 4.86h5.28v2.55c.38-.98.9-1.71 1.55-2.18q.32-.23.67-.38.75-.34 1.66-.34l.72 4.08q-2.37 0-3.5.52c-.73.34-1.1.87-1.1 1.6v6.51h-5.28V7.85Zm17.75 12.56c-1.4 0-2.65-.28-3.75-.83-1.09-.55-1.94-1.31-2.56-2.27-.6-.99-.9-2.11-.9-3.38s.31-2.39.93-3.35c.62-.99 1.47-1.75 2.55-2.28q1.65-.8 3.75-.8 2.13 0 3.76.82c1.1.54 1.95 1.29 2.55 2.26.6.96.9 2.08.9 3.35 0 1.28-.31 2.42-.93 3.4-.6.97-1.45 1.73-2.55 2.28-1.08.53-2.33.8-3.75.8Zm16.19 5.53c-.92 0-1.8-.09-2.63-.28l.4-3.7c.65.1 1.25.15 1.8.15 1.04 0 1.82-.31 2.35-.93.54-.6.85-1.61.95-3.05-.98 1.39-2.48 2.08-4.5 2.08-1.1 0-2.12-.28-3.05-.85q-.51-.32-.95-.72-.74-.67-1.25-1.58c-.54-.97-.81-2.03-.81-3.18q0-1.26.42-2.37.16-.43.39-.83c.53-.99 1.26-1.76 2.17-2.33.94-.57 1.95-.85 3.06-.85 1.01 0 1.9.26 2.65.8.76.52 1.27 1.22 1.5 2.1V7.5h5.28v9.53c0 2.92-.67 5.13-2 6.63-1.32 1.52-3.25 2.28-5.78 2.28Zm15.84-5.53c-1.08 0-2.1-.28-3.05-.85a6.76 6.76 0 0 1-2.25-2.35c-.57-1-.85-2.11-.85-3.33 0-1.2.28-2.29.85-3.25.57-.99 1.32-1.76 2.28-2.31q.86-.5 1.79-.69.6-.13 1.23-.13.6 0 1.16.15.65.18 1.25.57c.75.49 1.31 1.21 1.7 2.18V7.5h5.25v12.71h-5.25v-2.33c-.84 1.69-2.2 2.53-4.11 2.53Zm11.9-12.56h5.03v2.55c.96-1.93 2.5-2.9 4.6-2.9 1.6 0 2.85.57 3.75 1.72q1.38 1.71 1.38 4.73v6.26h-5.26v-6.78c0-.72-.15-1.27-.47-1.65q-.16-.2-.36-.33-.38-.25-.92-.25c-.4 0-.79.13-1.17.4-.39.25-.7.62-.95 1.1-.24.49-.35 1.04-.35 1.65v5.86h-5.28V7.85ZM48.95 20.41c-1.4 0-2.5-.45-3.28-1.35q-.03-.04-.06-.07l-.01-.01q-1.11-1.34-1.11-3.6V7.67h5.31v7.48c0 .39.1.69.3.91.21.2.49.3.82.3.34 0 .68-.1 1.03-.3l.27 3.47c-.36.29-.85.5-1.45.65-.58.15-1.19.23-1.82.23Zm22.53-3.75c.68 0 1.24-.25 1.68-.75.45-.52.67-1.18.67-1.98s-.22-1.45-.67-1.95c-.44-.52-1-.78-1.68-.78-.69 0-1.25.26-1.7.78-.44.5-.65 1.15-.65 1.95s.21 1.46.65 1.98c.45.5 1.01.75 1.7.75Zm16.14-.2c.66 0 1.24-.24 1.72-.7.49-.49.75-1.06.78-1.71v-.2c-.03-.63-.3-1.19-.8-1.67-.49-.49-1.05-.73-1.7-.73-.69 0-1.27.25-1.75.75a2.38 2.38 0 0 0-.73 1.75c0 .69.24 1.28.73 1.78.48.48 1.06.73 1.75.73Zm17.47 0c.67 0 1.23-.24 1.7-.7.48-.49.74-1.06.78-1.71v-.2a2.46 2.46 0 0 0-.8-1.7c-.49-.46-1.05-.7-1.68-.7-.7 0-1.3.25-1.8.75a2.38 2.38 0 0 0-.73 1.75c0 .7.25 1.3.75 1.78s1.1.73 1.78.73Z"/></svg>