<svg xmlns="http://www.w3.org/2000/svg" width="114.502" height="25.579" fill="none"><path fill="#FFF" d="m21.98 9.63-.01-.02L12.35 0 2.73 9.61l-.01.02a9.34 9.34 0 0 0-1.38 11.43 9.355 9.355 0 0 0 4.67 3.9c1.95.74 4.09.81 6.08.2a.92.92 0 0 1 .52 0c1.99.61 4.13.54 6.08-.2a9.405 9.405 0 0 0 4.67-3.9 9.34 9.34 0 0 0-1.38-11.43ZM6.15 15.97c-.04.05-.08.1-.11.16-.02.07-.03.13-.03.2.01 1.69.49 3.35 1.38 4.8.02.03.03.07.03.11 0 .04-.02.07-.04.1-.03.03-.06.05-.1.06-.04.01-.08.01-.11-.01-.67-.28-1.28-.69-1.79-1.2a5.61 5.61 0 0 1-1.64-3.96c-.01-1.49.58-2.92 1.63-3.97l6.98-6.98 6.98 6.98a5.564 5.564 0 0 1 1.63 3.97c0 1.48-.59 2.91-1.64 3.96-.51.51-1.12.92-1.79 1.2-.03.02-.07.02-.11.01a.207.207 0 0 1-.1-.06c-.02-.03-.04-.06-.04-.1 0-.04.01-.08.03-.11a9.288 9.288 0 0 0 1.38-4.8c0-.07-.01-.13-.03-.2a.906.906 0 0 0-.11-.16l-3.3-3.5a.192.192 0 0 0-.12-.04c-.04 0-.08.01-.12.04-.03.03-.05.07-.06.11-.01.04 0 .08.02.12 1.28 2.32.18 5.65-1.66 7.49l-.01.01c-.25.25-.59.39-.95.39s-.7-.14-.95-.39l-.01-.01c-1.84-1.84-2.94-5.17-1.66-7.49.02-.04.03-.08.02-.12a.238.238 0 0 0-.06-.11c-.03-.03-.08-.04-.12-.04-.04 0-.08.01-.12.04l-3.3 3.5Z"/><path fill="#FFF" fill-rule="evenodd" d="M100.5 6.78c-.38.38-.85.57-1.41.57-.55 0-1.02-.19-1.4-.57-.38-.38-.57-.85-.57-1.4 0-.57.19-1.04.57-1.43.38-.38.85-.57 1.4-.57.56 0 1.03.19 1.41.57.38.39.57.86.57 1.43 0 .55-.19 1.02-.57 1.4ZM51.02 17.61c-.97-1.05-1.46-2.4-1.46-4.05s.49-3 1.46-4.05q.81-.89 1.81-1.28.81-.32 1.75-.32c1.41 0 2.49.52 3.24 1.56V8.03h3.38v11.03h-3.38v-1.61q-.66.95-1.57 1.38-.77.36-1.71.36c-1.37 0-2.54-.52-3.52-1.58Zm30.21 1.58c-1.61 0-2.92-.51-3.95-1.54-1.03-1.04-1.54-2.42-1.54-4.13s.5-3.08 1.52-4.09c1.03-1.02 2.35-1.52 3.97-1.52s2.97.5 4.03 1.5c1.07 1 1.6 2.39 1.6 4.17 0 .38-.02.74-.07 1.07h-7.6c.07.49.29.89.66 1.2.37.31.76.46 1.18.46.44 0 .76-.04.97-.12.21-.09.36-.18.46-.26.1-.09.23-.23.39-.43h3.66c-.32 1.1-.95 2-1.9 2.69-.95.67-2.07 1-3.38 1ZM92.42 8.03v2.05c.79-1.45 1.84-2.17 3.16-2.17v3.44h-.83c-.78 0-1.37.18-1.76.55-.38.37-.57 1.02-.57 1.94v5.22h-3.38V8.03h3.38Zm12.21 9.6c-1.1-1.04-1.66-2.41-1.66-4.11 0-1.7.56-3.06 1.66-4.07q.59-.55 1.28-.9 1.25-.64 2.84-.64 1.6 0 2.86.66.66.35 1.23.88c1.1 1.01 1.66 2.37 1.66 4.07q0 1.75-.78 3.04-.35.58-.86 1.07c-1.1 1.04-2.46 1.56-4.09 1.56-1.64 0-3.02-.52-4.14-1.56Zm-58.99-9.6h3.18l-3.3 11.03h-3.63l-1.55-6.53-1.56 6.53h-3.64l-3.3-11.03h3.38l1.72 7.74 1.7-7.74h3.58l1.7 7.74 1.72-7.74Zm17.13 0h3.6l2.51 8.2 2.51-8.2h3.59l-3.91 11.03h-4.39L62.77 8.03Zm34.64 11.03V8.03h3.38v11.03h-3.38Zm-14.06-6.53c-.06-.51-.28-.93-.68-1.24-.39-.33-.86-.5-1.4-.5-.54 0-1 .17-1.36.5-.37.31-.6.73-.7 1.24h4.14Zm27.04 3.07c.44-.48.67-1.16.67-2.06 0-.9-.23-1.57-.69-2.04-.46-.47-1.01-.71-1.64-.71-.64 0-1.18.24-1.64.71l-.01.01q-.67.69-.67 2.03c0 .9.23 1.58.69 2.06.48.47 1.03.71 1.67.71.63 0 1.17-.24 1.62-.71Zm-53.3-.04q.09-.09.17-.19h.01q.55-.69.55-1.83c0-.87-.24-1.53-.73-2q-.46-.44-1-.61-.33-.1-.68-.1c-.63 0-1.19.24-1.68.71q-.09.1-.17.2-.56.68-.56 1.82c0 .87.24 1.54.73 2.02.49.46 1.05.69 1.68.69.63 0 1.19-.24 1.68-.71Z"/></svg>