<svg xmlns="http://www.w3.org/2000/svg" width="165" height="39" fill="none"><defs><clipPath id="a"><rect width="164" height="38" fill="#fff" fill-opacity="0" rx="-.5" transform="translate(.5 .5)"/></clipPath></defs><rect width="164" height="38" fill="none" rx="-.5" transform="translate(.5 .5)"/><g clip-path="url(#a)"><path fill="#5A45FF" d="m20.92.71 12.53 7.04c1.75.98 2.83 2.82 2.83 4.81v13.87c0 1.99-1.08 3.83-2.83 4.81l-12.53 7.04c-1.7.95-3.78.95-5.47 0L2.92 31.24a5.517 5.517 0 0 1-2.83-4.81V12.56c0-1.99 1.08-3.83 2.83-4.81L15.45.71c1.69-.95 3.77-.95 5.47 0ZM2.18 12.62v13.81c0 1.24.67 2.38 1.76 2.99l12.35 6.94c.16.06.33.09.5.09.77 0 1.39-.62 1.39-1.39V23.9c0-1.82-1.01-3.49-2.62-4.33l-.92-.47c-.22-.1-.43-.2-.64-.31L2.18 12.62Zm12.95 4.94c2.22 1.16 3.9 1.16 6.12 0l11.99-6.74c-.3-.68-.81-1.25-1.48-1.63L19.9 2.53c-1.06-.6-2.37-.6-3.43 0L4.63 9.19c-.67.38-1.18.95-1.48 1.63l11.98 6.74Zm3.05-12.69c2.61 0 4.74 1.28 4.87 2.9l.01 2.76c0 1.68-2.19 3.05-4.88 3.05s-4.87-1.37-4.87-3.05V7.77c.13-1.62 2.26-2.9 4.87-2.9Zm0 4.88c2.26 0 4.1-.92 4.1-2.05s-1.84-2.05-4.1-2.05-4.09.92-4.09 2.05 1.83 2.05 4.09 2.05Z"/><path fill="#FFF" fill-rule="evenodd" d="M55.47 20.54c0 1.56.4 2.82 1.21 3.77.8.95 1.86 1.42 3.18 1.42 1.27 0 2.3-.48 3.11-1.44.8-.96 1.2-2.22 1.2-3.78 0-1.54-.39-2.77-1.17-3.68-.78-.92-1.82-1.38-3.11-1.38-1.29 0-2.35.47-3.18 1.39-.82.93-1.24 2.16-1.24 3.7ZM67.92 4.51v24.23h-2.19c-.59 0-1.12-.32-1.38-.84-.14-.28-.21-.55-.21-.81-.45.51-.81.95-1.66 1.42-.85.46-1.97.63-3.06.63-2.32 0-4.2-.81-5.65-2.44-1.45-1.63-2.18-3.68-2.18-6.16 0-2.39.73-4.41 2.19-6.06 1.46-1.65 3.32-2.47 5.57-2.47 1.3 0 2.34.23 3.13.7s1.35 1.01 1.66 1.64V4.51h3.78Zm13.84 7.73v3.95h-.49c-2.93 0-4.39 1.6-4.39 4.79v7.76H73v-16.3h2.52c.45 0 .84.29.98.71l.38 1.19c.19-.38.7-1.24 1.6-1.67.9-.43 1.95-.43 3.02-.43h.26Zm2.18 12.08c0-1.38.45-2.49 1.35-3.33.91-.83 2.09-1.36 3.57-1.59l4.18-.63c.8-.11 1.2-.5 1.2-1.17 0-.74-.25-1.34-.77-1.79-.51-.46-1.28-.69-2.31-.69-.98 0-1.76.27-2.34.82-.58.55-.91 1.25-1 2.12l-3.5-.03c.16-1.47.81-3.5 2.06-4.53 1.25-1.04 2.83-1.56 4.75-1.56 2.37 0 4.11.57 5.24 1.71 1.12 1.13 1.69 2.6 1.69 4.38v8.1c0 1.07.06 1.94.2 2.61h-2.09c-.22 0-.44-.04-.65-.12-.69-.26-1.03-.69-1.03-1.29-.77 1.28-2.76 1.91-5.03 1.91-1.65 0-2.98-.48-4-1.45-1.01-.97-1.52-2.13-1.52-3.47Zm6.25 1.88c1.21 0 2.18-.33 2.93-.99.75-.66 1.12-1.73 1.12-3.23v-.74l-4.25.64c-1.45.25-2.17.98-2.17 2.21 0 .58.21 1.08.64 1.49.42.41 1 .62 1.73.62Zm19.78-17.86c-.65 0-1.21.18-1.69.55-.48.37-.72 1.01-.72 1.92v1.63h3.78v3.38h-3.78v12.92h-3.92V15.82h-2.84v-3.38h1.12c.95 0 1.72-.77 1.72-1.73 0-1.8.53-3.23 1.58-4.28 1.04-1.05 2.42-1.57 4.11-1.57h2.01v3.48h-1.37Zm10.5-.82v4.99h3.38v3.45h-3.38v7.56c0 .72.16 1.23.5 1.56.33.32.86.48 1.57.48h.53v3.45h-1.57c-1.51 0-2.71-.43-3.57-1.29-.87-.86-1.31-2.05-1.31-3.56v-8.2h-3.01v-3.45h.84c.82 0 1.45-.24 1.87-.7.42-.47.63-1.09.63-1.85V7.52h3.52Zm6.52-3.09h3.78v9.98c.31-.63.96-1.14 1.75-1.61.8-.47 2.05-.77 3.35-.77 2.25 0 4.05.72 5.51 2.38 1.46 1.65 1.95 3.73 1.95 6.11 0 2.48-.48 4.47-1.93 6.1s-3.47 2.53-5.79 2.53c-1.09 0-2.08-.25-2.93-.72-.84-.47-1.46-.9-1.91-1.42 0 .26-.07.53-.21.81-.27.52-.8.85-1.38.85h-2.19V4.43Zm11.23 19.89c.83-.93 1.24-2.19 1.24-3.78 0-1.58-.4-2.83-1.2-3.73-.81-.9-1.87-1.36-3.18-1.36-1.27 0-2.32.46-3.15 1.36-.82.9-1.23 2.15-1.23 3.73 0 1.56.41 2.81 1.23 3.75.83.94 1.88 1.41 3.15 1.41 1.29 0 2.34-.46 3.14-1.38Zm8.9-8.04h-1.6v-3.87h3.86v.03h1.59v16.3h-3.85V16.28Zm.13-7.79c-.48-.49-.73-1.08-.73-1.77s.25-1.29.73-1.79c.5-.51 1.09-.76 1.78-.76.71 0 1.31.25 1.81.74.49.49.73 1.09.73 1.81 0 .69-.24 1.28-.73 1.77-.5.49-1.1.74-1.81.74-.69 0-1.28-.25-1.78-.74Zm13.65-1.04v4.99h3.38v3.45h-3.38v7.56c0 .72.17 1.24.51 1.56.33.32.85.49 1.57.49h.53v3.44h-1.57c-1.52 0-2.71-.43-3.58-1.29-.87-.85-1.3-2.04-1.3-3.56v-8.2h-3.01v-3.45h.83c.83 0 1.45-.23 1.88-.7.42-.47.63-1.08.63-1.84V7.45h3.51Z"/></g></svg>