<svg xmlns="http://www.w3.org/2000/svg" width="113" height="113" fill="none"><g filter="url(#a)"><path fill="#151515" fill-opacity=".5" d="m113 56.5-.077 2.957-.233 2.949-.386 2.932-.539 2.909-.69 2.876-.84 2.837-.988 2.788-1.132 2.733-1.273 2.67-1.412 2.599-1.545 2.522-1.676 2.438-1.8 2.347-1.921 2.249-2.037 2.145-2.145 2.037-2.25 1.921-2.346 1.8-2.438 1.676-2.522 1.545-2.6 1.412-2.67 1.273-2.732 1.132-2.788.988-2.837.84-2.876.69-2.909.539-2.932.386-2.949.233L56.5 113l-2.957-.077-2.949-.233-2.933-.386-2.908-.539-2.876-.69-2.837-.84-2.788-.988-2.733-1.132-2.67-1.273-2.599-1.412-2.522-1.545-2.438-1.676-2.347-1.8-2.249-1.921-2.145-2.037-2.037-2.145-1.92-2.25-1.802-2.346-1.675-2.438L7.57 84.75l-1.412-2.6-1.273-2.67-1.132-2.732-.988-2.788-.84-2.837-.69-2.876-.54-2.909-.385-2.932-.233-2.949L0 56.5l.077-2.957.233-2.949.386-2.933.539-2.908.69-2.876.84-2.837.988-2.788 1.132-2.733 1.273-2.67L7.57 28.25l1.545-2.522 1.675-2.438 1.801-2.347 1.921-2.249 2.037-2.145 2.145-2.037 2.25-1.92 2.346-1.802 2.438-1.675L28.25 7.57l2.6-1.412 2.67-1.273 2.732-1.132 2.788-.988 2.837-.84 2.876-.69 2.908-.54L50.594.31l2.949-.233L56.5 0l2.957.077 2.949.233 2.932.386 2.909.539 2.876.69 2.837.84 2.788.988 2.733 1.132 2.67 1.273L84.75 7.57l2.522 1.545 2.438 1.675 2.347 1.801 2.249 1.921 2.145 2.037 2.037 2.145 1.921 2.25 1.8 2.346 1.676 2.438 1.545 2.522 1.412 2.6 1.273 2.67 1.132 2.732.988 2.788.84 2.837.69 2.876.539 2.908.386 2.933.233 2.949L113 56.5Z"/></g><path stroke="#fff" stroke-width="1.088" d="M56.665 41v32.638M67 63.808c-3.445.523-10.335 3.145-10.335 9.437 0-6.292-6.89-8.914-10.336-9.438"/><path fill="#fff" d="M12.155 57.346a.996.996 0 1 0 .01-1.993.996.996 0 0 0-.01 1.992ZM15.533 47.948c.315-1.098.004-1.945-.494-2.496l-.786.374c.382.325.819.892.527 1.906-.258.9-1.036 1.32-2.118 1.067l1.08-3.754a2.114 2.114 0 0 0-.397-.159c-1.484-.427-2.685.168-3.097 1.6-.4 1.39.353 2.671 1.953 3.13 1.61.464 2.92-.235 3.332-1.668Zm-4.522-1.243c.244-.846.892-1.249 1.85-1.076l-.851 2.96c-.908-.386-1.233-1.068-.999-1.884ZM17.413 41.567l-.798-1.441-.451-.81.92-.099 1.623-.153.504-.977-3.206.352-1.436-2.837-.5.967 1.24 2.22-2.514.244-.5.967 3.125-.358 1.494 2.891.5-.966ZM23.432 35.205l-2.643-2.112c.736.351 1.575.381 2.207-.41.828-1.036.495-2.361-.806-3.4-1.3-1.04-2.658-1.066-3.486-.029-.632.79-.417 1.603.088 2.243l-1.054-.842-.591.74 5.695 4.55.59-.74Zm-3.348-2.676-.587-.468c-.68-.544-1.001-1.274-.377-2.056.523-.654 1.427-.81 2.473.026 1.053.842 1.102 1.758.579 2.412-.625.782-1.409.63-2.088.086ZM27.917 27.331l-4.868-5.425-.704.632 4.868 5.425.704-.632ZM32.808 24.016c1.23-.782 1.526-2.245.633-3.65-.893-1.405-2.343-1.76-3.573-.978-1.23.781-1.516 2.239-.624 3.644.893 1.405 2.334 1.765 3.564.984Zm-.426-.67c-.753.478-1.609.287-2.32-.833-.718-1.13-.521-1.977.232-2.455.762-.484 1.621-.308 2.339.821.712 1.12.511 1.982-.25 2.466ZM40.213 20.694l-1.092-2.773c-.331-.84-.055-1.802.572-2.05.355-.14.602.044.714.327.108.274.096.63-.01.835l.961-.38c.033-.152.025-.5-.139-.915-.27-.688-.924-.864-1.45-.656-.83.327-1.078 1.184-.971 2.019l-.514-1.306-.881.347 1.93 4.9.88-.348ZM48.763 18.395c1.123-.21 1.741-.867 2.01-1.56l-.686-.536c-.12.488-.43 1.132-1.468 1.326-.92.171-1.645-.335-1.902-1.416l3.84-.716c.003-.1-.006-.265-.036-.425-.283-1.52-1.352-2.327-2.817-2.053-1.423.265-2.23 1.511-1.925 3.148.307 1.646 1.518 2.505 2.984 2.232Zm-.914-4.6c.867-.161 1.517.238 1.79 1.171l-3.026.565c-.062-.984.402-1.58 1.236-1.736ZM61.971 17.318l1.416-2.88.593-1.321.093 1.44.364 3.188 1.222.212 2.24-4.956-1.04-.18-1.219 3.08-.475 1.275-.104-1.376-.379-3.356-1.147-.2-1.497 3.031-.55 1.263-.018-1.361-.121-3.311-1.04-.18.451 5.422 1.211.21ZM72.782 20.462c1.052.446 1.931.24 2.538-.189l-.276-.826c-.369.34-.984.706-1.956.294-.862-.365-1.186-1.188-.804-2.23l3.596 1.523c.059-.082.142-.224.206-.374.603-1.423.157-2.687-1.215-3.268-1.333-.564-2.694.029-3.343 1.562-.654 1.542-.118 2.927 1.254 3.508Zm1.779-4.338c.811.343 1.133 1.035.845 1.964l-2.835-1.2c.493-.855 1.209-1.095 1.99-.765ZM78.69 24.175l.766-1.11c-.305.768-.277 1.607.556 2.182 1.101.76 2.4.334 3.345-1.035.946-1.37.883-2.735-.218-3.495-.833-.575-1.628-.304-2.237.253l1.928-2.793-.779-.538-4.14 5.999.778.537Zm1.273-1.844.426-.618c.494-.716 1.2-1.088 2.024-.52.699.483.917 1.373.156 2.475-.766 1.11-1.676 1.222-2.374.74-.824-.569-.727-1.36-.232-2.077ZM86.662 30.018c.712.735 1.668 1.05 2.419.323.523-.507.602-1.129-.02-2.177l-.344-.606c-.374-.637-.5-1-.164-1.326.32-.31.765-.195 1.144.195.522.54.589 1.172.325 1.79l.883.145c.295-.695.18-1.659-.592-2.456-.795-.82-1.732-.943-2.42-.277-.695.674-.385 1.51.012 2.17l.368.614c.33.544.553.994.21 1.327-.337.325-.796.195-1.228-.25-.726-.75-.698-1.581-.397-2.13l-.86-.122c-.453.94-.1 1.991.664 2.78ZM95.77 31.592l.963-.674-.543-.776-.962.674.543.776Zm-5.009 3.505 4.314-3.019-.542-.775-4.315 3.018.543.776ZM94.062 40.75c.327.651.852.948 1.276.991l.695-.701c-.355.02-.852-.097-1.061-.515-.185-.37-.18-.725.423-1.027l2.587-1.296.775 1.547.661-.331-.774-1.547 1.225-.614-1.046-.534-.603.302-.38-.759-.662.331.38.759-2.84 1.422c-.808.405-1.04 1.203-.656 1.971ZM96.102 47.636c.316 1.098 1.03 1.652 1.744 1.854l.468-.735c-.496-.072-1.168-.32-1.46-1.335-.258-.9.177-1.67 1.229-2.028l1.079 3.753c.1-.006.263-.03.42-.075 1.484-.427 2.186-1.568 1.775-3-.4-1.391-1.718-2.077-3.317-1.617-1.61.463-2.35 1.751-1.938 3.183Zm4.491-1.347c.244.847-.091 1.532-.995 1.893l-.85-2.959c.974-.155 1.611.25 1.845 1.066ZM99.155 57.346a.996.996 0 1 0 .01-1.993.996.996 0 0 0-.01 1.992ZM96.467 67.052c-.315 1.097-.004 1.945.494 2.496l.786-.374c-.382-.325-.819-.892-.527-1.906.258-.9 1.036-1.32 2.118-1.067l-1.08 3.754c.089.048.24.114.397.159 1.484.427 2.685-.168 3.097-1.6.4-1.39-.353-2.671-1.953-3.13-1.61-.464-2.92.235-3.332 1.668Zm4.522 1.243c-.244.846-.891 1.249-1.85 1.076l.851-2.96c.908.386 1.233 1.068.999 1.884ZM94.587 73.433l.798 1.441.451.81-.92.099-1.623.153-.504.976 3.206-.35 1.436 2.836.5-.967-1.24-2.22 2.514-.244.5-.967-3.125.358-1.494-2.891-.5.966ZM88.568 78.795l2.643 2.112c-.736-.351-1.575-.381-2.207.41-.828 1.036-.495 2.361.806 3.4 1.3 1.04 2.658 1.066 3.486.029.632-.79.417-1.603-.088-2.243l1.054.842.591-.74-5.694-4.55-.591.74Zm3.348 2.676.587.468c.68.544 1.001 1.274.377 2.056-.523.654-1.427.81-2.473-.026-1.053-.842-1.102-1.758-.579-2.412.625-.782 1.409-.63 2.088-.086ZM84.083 86.669l4.868 5.425.704-.632-4.868-5.425-.704.632ZM79.192 90.984c-1.23.782-1.525 2.245-.633 3.65.893 1.405 2.343 1.76 3.573.978 1.23-.781 1.516-2.239.624-3.644-.893-1.405-2.334-1.765-3.564-.984Zm.426.67c.753-.478 1.609-.287 2.32.834.718 1.129.521 1.976-.232 2.454-.762.484-1.621.308-2.339-.821-.712-1.12-.511-1.982.25-2.466ZM71.787 94.306l1.092 2.773c.331.84.055 1.803-.572 2.05-.355.14-.602-.044-.714-.327-.108-.274-.096-.63.01-.835l-.961.38c-.033.152-.025.5.139.915.27.688.924.864 1.45.656.83-.327 1.078-1.184.971-2.019l.514 1.306.881-.347-1.93-4.9-.88.348ZM64.237 96.605c-1.123.21-1.741.867-2.01 1.56l.686.535c.12-.487.43-1.131 1.468-1.325.92-.171 1.645.335 1.902 1.416l-3.84.716c-.003.1.006.265.036.425.283 1.519 1.352 2.327 2.817 2.053 1.423-.265 2.23-1.511 1.925-3.147-.307-1.647-1.519-2.506-2.984-2.233Zm.914 4.6c-.867.161-1.516-.238-1.79-1.171l3.026-.565c.062.984-.402 1.58-1.236 1.736ZM50.029 96.682l-1.416 2.88-.593 1.321-.093-1.44-.364-3.188-1.222-.212-2.24 4.956 1.04.18 1.219-3.08.475-1.275.104 1.376.379 3.356 1.147.199 1.497-3.03.55-1.263.018 1.361.121 3.311 1.04.181-.451-5.423-1.211-.21ZM39.218 93.538c-1.052-.446-1.931-.24-2.538.189l.276.826c.369-.34.984-.706 1.956-.294.862.365 1.187 1.188.804 2.23l-3.596-1.523a2.126 2.126 0 0 0-.206.374c-.602 1.423-.157 2.686 1.215 3.268 1.333.564 2.694-.029 3.343-1.562.654-1.542.118-2.927-1.254-3.508Zm-1.779 4.338c-.812-.343-1.133-1.035-.846-1.964l2.835 1.2c-.491.855-1.208 1.095-1.989.764ZM33.31 90.825l-.766 1.11c.305-.768.277-1.607-.556-2.182-1.101-.76-2.4-.334-3.345 1.035-.946 1.37-.883 2.735.218 3.496.833.574 1.628.303 2.237-.254l-1.928 2.793.779.538 4.14-5.999-.779-.537Zm-1.273 1.844-.426.618c-.494.716-1.2 1.088-2.024.52-.699-.483-.917-1.373-.156-2.475.766-1.11 1.676-1.222 2.374-.74.824.569.727 1.36.233 2.077ZM25.338 83.982c-.712-.735-1.669-1.05-2.419-.323-.523.507-.602 1.129.02 2.177l.344.606c.374.637.5 1 .164 1.326-.32.31-.765.195-1.144-.195-.522-.54-.589-1.171-.325-1.79l-.883-.145c-.295.695-.18 1.659.592 2.456.795.82 1.732.943 2.42.277.695-.674.385-1.51-.012-2.17l-.368-.614c-.33-.544-.553-.993-.21-1.327.337-.325.796-.195 1.228.25.726.75.698 1.581.397 2.13l.86.122c.453-.94.1-1.991-.664-2.78ZM16.23 82.408l-.963.674.543.776.962-.674-.542-.776Zm5.009-3.505-4.314 3.019.542.775 4.315-3.019-.543-.775ZM17.938 73.25c-.327-.651-.852-.948-1.276-.991l-.695.701c.355-.02.851.097 1.061.515.185.37.18.725-.423 1.027l-2.587 1.296-.775-1.547-.661.331.774 1.547-1.225.614 1.046.534.603-.302.38.76.662-.332-.38-.759 2.84-1.422c.808-.405 1.04-1.203.656-1.971ZM15.898 66.364c-.316-1.098-1.03-1.652-1.744-1.854l-.468.735c.496.072 1.168.32 1.46 1.335.258.9-.178 1.67-1.229 2.028l-1.079-3.753c-.1.006-.263.03-.42.075-1.484.427-2.186 1.568-1.775 3 .4 1.391 1.718 2.076 3.317 1.617 1.61-.463 2.35-1.751 1.938-3.183Zm-4.491 1.347c-.244-.847.091-1.532.995-1.893l.85 2.959c-.974.155-1.611-.25-1.845-1.066Z"/><defs><filter id="a" width="161" height="161" x="-24" y="-24" color-interpolation-filters="sRGB" filterUnits="userSpaceOnUse"><feFlood flood-opacity="0" result="BackgroundImageFix"/><feGaussianBlur in="BackgroundImageFix" stdDeviation="12"/><feComposite in2="SourceAlpha" operator="in" result="effect1_backgroundBlur_20_429"/><feBlend in="SourceGraphic" in2="effect1_backgroundBlur_20_429" result="shape"/></filter></defs></svg>