<svg xmlns="http://www.w3.org/2000/svg" width="130" height="38" fill="none"><defs><clipPath id="a"><rect width="129" height="37" fill="#fff" fill-opacity="0" rx="-.5" transform="translate(.5 .5)"/></clipPath></defs><rect width="129" height="37" fill="none" rx="-.5" transform="translate(.5 .5)"/><g clip-path="url(#a)"><path fill="#26A943" fill-rule="evenodd" d="M16.67 1.29a4.269 4.269 0 0 1 6.13 0l15.42 15.78c1.69 1.72 1.69 4.55 0 6.28L27.44 34.38c-.79.81-1.88 1.31-3.08 1.31h-9.24c-1.1 0-2.1-.42-2.86-1.1l-11-11.25c-1.69-1.73-1.69-4.55 0-6.28L16.67 1.29Zm5.7 28.8-1.53 1.58c-.12.11-.27.18-.44.18h-1.32c-.16 0-.3-.05-.41-.15l-1.57-1.61a.64.64 0 0 1 0-.89l2.2-2.25c.24-.25.63-.25.87 0l2.2 2.25c.25.24.25.65 0 .89Zm0-9.44-6.15 6.3a.61.61 0 0 1-.44.18h-1.31c-.16 0-.3-.05-.41-.15l-1.57-1.61a.64.64 0 0 1 0-.89l6.81-6.97a.61.61 0 0 1 .88 0l2.19 2.25c.25.24.25.65 0 .89Zm0-9.44L11.61 22.23c-.11.11-.27.18-.44.18H9.85c-.15 0-.29-.05-.4-.15l-1.57-1.61a.64.64 0 0 1 0-.89L19.3 8.07c.24-.25.63-.25.87 0l2.2 2.25c.25.25.25.65 0 .89Z"/><path fill="#FFF" d="M112.81 14.49V7.87h-4.67v24.01h4.67V15.2l5.72 15.6c.13.33.19.71.19 1.08 0 1.07-.59 2.05-1.8 2.18-.92.03-1.84-.07-2.73-.17v3.94c.95.1 1.91.17 2.86.17 3.19 0 4.83-1.15 5.85-3.94l7.1-19.57h-4.83l-3.72 11.91h-.06l-3.85-11.91h-4.73ZM58.13 8c-.79-.03-1.65-.13-2.47-.13-3.81 0-5.68 2.18-5.68 5.28v1.34h-2.8v3.2h2.8v14.19h4.66V17.69h3.22v-3.2h-3.22v-1.04c0-1.45.5-1.99 1.78-1.99.56 0 1.15.04 1.71.11V8Z"/><path fill="#FFF" fill-rule="evenodd" d="M107.12 7.87v24.01h-4.44v-2.22h-.06c-1.08 1.88-2.96 2.69-5.16 2.69-4.66 0-7.15-3.7-7.56-8.01H77.68c.13 3.06 1.54 4.41 4.17 4.41 1.88 0 3.39-1.18 3.68-2.25h4.11c-1.31 4.13-4.11 5.85-7.95 5.85-4.97 0-8.18-3.24-8.62-8.01H61.05c.14 3.06 1.55 4.41 4.18 4.41 1.87 0 3.38-1.18 3.67-2.25h4.11c-1.31 4.13-4.11 5.85-7.95 5.85-5.36 0-8.67-3.77-8.67-9.15 0-5.21 3.51-9.18 8.67-9.18 4.68 0 7.43 3.26 8.11 7.34.73-4.28 3.99-7.34 8.52-7.34 4.91 0 7.69 3.59 8.19 7.95.36-4.25 2.87-7.95 7.48-7.95 2.01 0 3.98.88 5.03 2.59h.07V7.87h4.66Zm-42.19 9.75c-3.02 0-3.78 2.35-3.88 3.7h7.59c-.42-2.42-1.44-3.7-3.71-3.7Zm12.75 3.7c.1-1.35.86-3.7 3.88-3.7 2.26 0 3.28 1.28 3.71 3.7h-7.59Zm24.94 1.81c0-2.82-.99-5.51-4.01-5.51-3.05 0-4.11 2.72-4.11 5.55 0 2.72 1.22 5.58 4.11 5.58 3.06 0 4.01-2.76 4.01-5.62Z"/></g></svg>