<svg xmlns="http://www.w3.org/2000/svg" width="130" height="32" fill="none"><defs><clipPath id="a"><rect width="129" height="31" fill="#fff" fill-opacity="0" rx="-.5" transform="translate(.5 .5)"/></clipPath><filter id="b" width="18.581" height="19.369" x="5.766" y="7.043" color-interpolation-filters="sRGB" filterUnits="userSpaceOnUse"><feFlood flood-opacity="0" result="BackgroundImageFix"/><feColorMatrix in="SourceAlpha" result="hardAlpha" values="0 0 0 0 0 0 0 0 0 0 0 0 0 0 0 0 0 0 127 0"/><feOffset dy=".912"/><feGaussianBlur stdDeviation=".174"/><feComposite in2="hardAlpha" k2="-1" k3="1" operator="out"/><feColorMatrix values="0 0 0 0 0 0 0 0 0 0 0 0 0 0 0 0 0 0 0.15 0"/><feBlend in2="BackgroundImageFix" result="effect_dropShadow_1"/><feBlend in="SourceGraphic" in2="effect_dropShadow_1" result="shape"/></filter></defs><rect width="129" height="31" fill="none" rx="-.5" transform="translate(.5 .5)"/><g clip-path="url(#a)"><path fill="#FFF" fill-rule="evenodd" d="M39.53 23.22c-.48-.19-.79-.57-.79-1.09 0-.62.51-1.13 1.14-1.13.18 0 .33.03.46.09.81.37 1.67.59 2.72.59 1.91 0 2.81-.92 2.81-2.68v-.48c-.83.99-1.73 1.6-3.21 1.6-2.3 0-4.38-1.67-4.38-4.59v-.04c0-2.93 2.11-4.58 4.38-4.58 1.52 0 2.42.64 3.18 1.46v-.01c0-.76.62-1.38 1.39-1.38.78 0 1.4.62 1.4 1.39v6.33c0 1.76-.42 3.05-1.25 3.87-.92.92-2.34 1.33-4.25 1.33-1.3 0-2.44-.22-3.6-.68Zm6.34-7.69v-.04c0-1.34-1.05-2.27-2.41-2.27s-2.39.93-2.39 2.27v.04c0 1.36 1.03 2.27 2.39 2.27s2.41-.93 2.41-2.27Z"/><path fill="#FFF" fill-rule="evenodd" d="M39.53 23.22c-.48-.19-.79-.57-.79-1.09 0-.62.51-1.13 1.14-1.13.18 0 .33.03.46.09.81.37 1.67.59 2.72.59 1.91 0 2.81-.92 2.81-2.68v-.48c-.83.99-1.73 1.6-3.21 1.6-2.3 0-4.38-1.67-4.38-4.59v-.04c0-2.93 2.11-4.58 4.38-4.58 1.52 0 2.42.64 3.18 1.46v-.01c0-.76.62-1.38 1.39-1.38.78 0 1.4.62 1.4 1.39v6.33c0 1.76-.42 3.05-1.25 3.87-.92.92-2.34 1.33-4.25 1.33-1.3 0-2.44-.22-3.6-.68Zm6.34-7.69v-.04c0-1.34-1.05-2.27-2.41-2.27s-2.39.93-2.39 2.27v.04c0 1.36 1.03 2.27 2.39 2.27s2.41-.93 2.41-2.27Zm4.34-3.16c0-.77.63-1.39 1.4-1.39.77 0 1.4.62 1.4 1.39v.44c.4-.95 1.07-1.83 1.89-1.83.87 0 1.36.57 1.36 1.36 0 .73-.47 1.17-1.04 1.3-1.42.33-2.21 1.41-2.21 3.39v2.61c0 .77-.63 1.39-1.4 1.39-.77 0-1.4-.62-1.4-1.39v-7.27Zm5.72 5.73v-.04c0-2.15 1.64-3.14 3.98-3.14.99 0 1.71.17 2.41.41v-.17c0-1.15-.72-1.8-2.12-1.8-.77 0-1.4.11-1.93.28-.17.05-.28.07-.41.07-.64 0-1.15-.49-1.15-1.13 0-.5.31-.92.75-1.09.88-.33 1.84-.51 3.14-.51 1.53 0 2.63.4 3.33 1.1.74.73 1.07 1.82 1.07 3.14v4.47c0 .76-.61 1.34-1.36 1.34-.81 0-1.34-.57-1.34-1.15v-.02c-.68.75-1.62 1.25-2.98 1.25-1.86 0-3.39-1.07-3.39-3.01Zm6.42-.64v-.5c-.48-.22-1.1-.37-1.78-.37-1.2 0-1.93.48-1.93 1.36v.04c0 .75.62 1.19 1.52 1.19 1.31 0 2.19-.72 2.19-1.72Zm4.14-5.09c0-.77.63-1.39 1.4-1.39.77 0 1.4.62 1.4 1.39v.11c.64-.82 1.49-1.57 2.9-1.57 1.29 0 2.26.56 2.78 1.56.86-1.01 1.89-1.56 3.24-1.56 2.07 0 3.32 1.24 3.32 3.61v5.12c0 .77-.62 1.39-1.39 1.39-.78 0-1.4-.62-1.4-1.39v-4.2c0-1.32-.59-2-1.64-2-1.05 0-1.69.68-1.69 2v4.2c0 .77-.62 1.39-1.4 1.39-.77 0-1.4-.62-1.4-1.39v-4.2c0-1.32-.58-2-1.63-2-1.05 0-1.69.68-1.69 2v4.2c0 .77-.63 1.39-1.4 1.39-.77 0-1.4-.62-1.4-1.39v-7.27Zm16.55 0c0-.77.63-1.39 1.4-1.39.77 0 1.4.62 1.4 1.39v.11c.64-.82 1.49-1.57 2.9-1.57 1.29 0 2.27.56 2.78 1.56.87-1.01 1.9-1.56 3.24-1.56 2.08 0 3.33 1.24 3.33 3.61v5.12c0 .77-.63 1.39-1.4 1.39-.77 0-1.4-.62-1.4-1.39v-4.2c0-1.32-.59-2-1.64-2-1.04 0-1.69.68-1.69 2v4.2c0 .77-.62 1.39-1.4 1.39-.77 0-1.39-.62-1.39-1.39v-4.2c0-1.32-.59-2-1.64-2-1.05 0-1.69.68-1.69 2v4.2c0 .77-.63 1.39-1.4 1.39-.77 0-1.4-.62-1.4-1.39v-7.27Zm15.97 5.73v-.04c0-2.15 1.63-3.14 3.97-3.14.99 0 1.71.17 2.41.41v-.17c0-1.15-.72-1.8-2.12-1.8-.77 0-1.39.11-1.93.28-.16.05-.27.07-.4.07-.65 0-1.16-.49-1.16-1.13 0-.5.31-.92.75-1.09.89-.33 1.84-.51 3.15-.51 1.53 0 2.63.4 3.33 1.1.73.73 1.06 1.82 1.06 3.14v4.47c0 .76-.6 1.34-1.36 1.34-.81 0-1.34-.57-1.34-1.15v-.02c-.68.75-1.62 1.25-2.98 1.25-1.86 0-3.38-1.07-3.38-3.01Zm6.42-.64v-.5c-.48-.22-1.11-.37-1.79-.37-1.19 0-1.93.48-1.93 1.36v.04c0 .75.63 1.19 1.53 1.19 1.3 0 2.19-.72 2.19-1.72Zm4.13-5.09c0-.77.63-1.39 1.4-1.39.77 0 1.4.62 1.4 1.39v.44c.4-.95 1.07-1.83 1.89-1.83.87 0 1.36.57 1.36 1.36 0 .73-.47 1.17-1.04 1.3-1.42.33-2.21 1.41-2.21 3.39v2.61c0 .77-.63 1.39-1.4 1.39-.77 0-1.4-.62-1.4-1.39v-7.27Zm6.9-3.56c0-.77.63-1.39 1.4-1.39.77 0 1.4.62 1.4 1.39v10.83c0 .77-.63 1.39-1.4 1.39-.77 0-1.4-.62-1.4-1.39V8.81Zm5.02 14.85c-.4-.15-.88-.48-.88-1.16 0-.68.53-1.14 1.1-1.14.22 0 .35.04.46.08.24.07.39.11.59.11.5 0 .74-.09.99-.59l.1-.22-3.37-7.78c-.07-.18-.15-.46-.15-.64 0-.79.61-1.34 1.38-1.34.7 0 1.11.38 1.34 1.04l2.14 5.73 2.06-5.71c.22-.58.62-1.06 1.34-1.06.72 0 1.32.55 1.32 1.28 0 .22-.07.54-.12.66l-3.44 8.24c-.83 2-1.66 2.75-3.33 2.75-.63 0-1.07-.09-1.53-.25Z"/><path fill="#4CA385" d="M15.22.76C6.81.76 0 7.58 0 16h30.44C30.44 7.58 23.62.76 15.22.76ZM15.22 31.23c8.4 0 15.22-6.82 15.22-15.23H0c0 8.41 6.81 15.23 15.22 15.23Z"/><g filter="url(#b)"><path fill="#FFF" fill-rule="evenodd" d="M18.22 18.06c-.15 0-.3.03-.44.1-.21.1-.37.26-.48.46-.1.21-.14.44-.09.67.09.49.55.84 1.06.84h1.6l.92-.13c-1.48 2.17-4.05 3.17-6.86 2.73-2.28-.36-4.24-1.91-5.08-4.07-1.88-4.91 1.71-9.6 6.37-9.6 2.44 0 4.57 1.43 5.79 3.15v.04c.15.22.39.38.66.43.27.05.55 0 .78-.16a.96.96 0 0 0 .41-.62c.06-.25.01-.51-.12-.73h.01a8.96 8.96 0 0 0-3.51-3.18 8.97 8.97 0 0 0-4.64-.93c-4.45.3-8.05 3.95-8.3 8.4-.3 5.19 3.81 9.43 8.92 9.43 1.28 0 2.54-.27 3.7-.8a8.79 8.79 0 0 0 3.03-2.27l-.19 1.09v.98c0 .51.34.98.84 1.07.15.02.3.02.45-.02.14-.04.28-.11.4-.2.11-.1.21-.22.27-.36.07-.14.1-.29.1-.44v-5.88h-5.6Z"/></g></g></svg>