<svg xmlns="http://www.w3.org/2000/svg" width="130" height="19" fill="none"><defs><clipPath id="a"><rect width="129" height="18" fill="#fff" fill-opacity="0" rx="-.5" transform="translate(.5 .5)"/></clipPath></defs><rect width="129" height="18" fill="none" rx="-.5" transform="translate(.5 .5)"/><g clip-path="url(#a)"><path fill="#00B3E6" fill-rule="evenodd" d="M3.23 18.98v-3.15h14.18v3.15H3.23ZM14.4 3.26H6.24l4.08 5.63 4.08-5.63ZM20.56.11 10.32 14.26.08.11h20.48Z"/><path fill="#000" d="M33.06 15.84v-5.05h-4.85v5.05h-2.92V3.26h2.92v4.92h4.85V3.25h2.92v12.58l-2.92.01ZM39.67 15.84V3.26h7.99v2.67H42.6v2.25h4.61v2.54H42.6v2.45h5.06v2.67h-7.99ZM51.15 15.84V3.26h2.92v9.92h5.06v2.66h-7.98ZM61.58 15.84V3.26h2.93v9.92h5.06v2.66h-7.99ZM77.81 16.04c-3.9 0-6.39-2.8-6.39-6.49 0-3.69 2.61-6.5 6.52-6.5 3.9 0 6.39 2.8 6.39 6.5 0 3.71-2.63 6.49-6.52 6.49Zm.05-10.38c-1.99 0-3.33 1.63-3.33 3.89 0 2.27 1.34 3.9 3.33 3.9 2 0 3.34-1.65 3.34-3.9s-1.34-3.89-3.34-3.89ZM90.65 16.04c-1.42 0-3.15-.56-4.24-1.29l.8-2.64c1.02.74 2.34 1.22 3.53 1.22 1.03 0 1.43-.48 1.43-1.1 0-.65-.33-1.1-2.26-1.87-2.21-.89-2.99-2.18-2.99-3.69 0-1.84 1.5-3.62 4.44-3.62 1.38 0 2.79.48 3.53.98l-.74 2.6c-.73-.49-1.9-1.03-2.79-1.03-1.07 0-1.5.5-1.5 1.02 0 .82.64 1.1 2.22 1.77 2.36.99 3.06 2.12 3.06 3.74 0 2.01-1.46 3.91-4.49 3.91ZM98.28 15.84V3.26h2.92v12.58h-2.92ZM115.78 8.76v6.01c-1.44.86-3.1 1.3-4.78 1.27-3.7 0-6.62-2.64-6.62-6.49 0-3.84 2.96-6.5 6.77-6.5 1.66 0 2.98.43 4.24 1.08l-1.23 2.35a5.97 5.97 0 0 0-2.81-.7c-2.51 0-3.85 1.56-3.85 3.77 0 2.41 1.61 3.9 3.67 3.9.93 0 1.4-.1 1.86-.34v-1.86h-2.53V8.76h5.28ZM129.67 16.08l-7.6-6.82v6.58h-2.93V3.08l.4-.07 7.5 6.77V3.25h2.92v12.77l-.29.06Z"/></g></svg>