<svg xmlns="http://www.w3.org/2000/svg" width="130" height="38" fill="none"><defs><clipPath id="a"><rect width="129" height="37" fill="#fff" fill-opacity="0" rx="-.5" transform="translate(.5 .5)"/></clipPath></defs><rect width="129" height="37" fill="none" rx="-.5" transform="translate(.5 .5)"/><g fill="#FFF" clip-path="url(#a)"><path d="M48.7 11.38v19.43c0 1.25-.55 1.85-2.2 1.85-.23 0-.44-.01-.74-.03v4.54c.47.04.79.03 1.11.04 4.82.15 7.85-1.61 7.85-6.28V11.38H48.7Zm3.01-2.2c1.71 0 3.09-1.28 3.09-2.87 0-1.58-1.38-2.86-3.09-2.86-1.7 0-3.09 1.28-3.09 2.86 0 1.59 1.39 2.87 3.09 2.87Zm6.85 21.04h6.01V11.38h-6.01v18.84Zm3.01-21.04c1.71 0 3.09-1.28 3.09-2.87 0-1.58-1.38-2.86-3.09-2.86-1.7 0-3.09 1.28-3.09 2.86 0 1.59 1.39 2.87 3.09 2.87Zm17.51 2.2h-3.41V6.86h-6.02v4.52h-2.5v4.42h2.5v9.16c-.04 3.81 2.45 5.73 6.7 5.53 1.45-.07 2.5-.37 3.07-.54l-.91-4.33c-.26.06-.86.19-1.31.19-.98 0-1.53-.4-1.53-1.51v-8.5h3.41v-4.42Zm13.74 0h-3.41V6.86h-6.02v4.52H80.9v4.42h2.49v9.16c-.03 3.81 2.45 5.73 6.7 5.53 1.45-.07 2.5-.37 3.08-.54l-.91-4.33c-.26.06-.86.19-1.32.19-.97 0-1.53-.4-1.53-1.51v-8.5h3.41v-4.42Zm11.71 19.2c4.96 0 8.23-2.39 8.92-6.1l-5.53-.16c-.47 1.25-1.7 1.93-3.28 1.93-2.31 0-3.74-1.54-3.74-3.84v-.16h12.61v-1.5c0-6.21-3.8-9.62-9.16-9.62-5.72 0-9.38 3.91-9.38 9.74 0 6.04 3.62 9.71 9.56 9.71Zm-3.63-11.82c.09-1.87 1.58-3.3 3.57-3.3 1.98 0 3.41 1.38 3.44 3.3h-7.01Zm15.68 11.46h6.02V19.99c0-2.24 1.6-3.75 3.76-3.75.71 0 1.78.12 2.36.32v-5.22c-.51-.13-1.13-.22-1.69-.22-2.07 0-3.71 1.2-4.4 3.69h-.2v-3.43h-5.85v18.84ZM19.06 38c10.53 0 19.07-8.51 19.07-19 0-10.5-8.54-19-19.07-19C8.53 0 0 8.5 0 19c0 10.49 8.53 19 19.06 19Z"/></g></svg>