<svg xmlns="http://www.w3.org/2000/svg" width="65" height="29" fill="none"><defs><clipPath id="a"><rect width="64" height="28" fill="#fff" fill-opacity="0" rx="-.5" transform="translate(.5 .5)"/></clipPath></defs><rect width="64" height="28" fill="none" rx="-.5" transform="translate(.5 .5)"/><g clip-path="url(#a)"><path fill="#FF7E61" d="M31.65 5.9c1.57 0 2.85-1.26 2.85-2.81S33.22.29 31.65.29c-1.58 0-2.85 1.25-2.85 2.8 0 1.55 1.27 2.81 2.85 2.81Z"/><path fill="#FFF" d="m7.57 14.94 7.31-7.2c.13-.12.04-.34-.14-.34H8.83c-.05 0-.1.03-.14.06l-3.8 3.75V1.37c0-.14-.15-.24-.28-.19L.43 2.85c-.07.03-.12.1-.12.18v19.39c0 .18.15.33.33.33h3.91c.19 0 .34-.15.34-.33v-3.75l4.08 4.02c.04.04.09.06.15.06h5.91c.18 0 .26-.22.14-.34l-7.6-7.47ZM29.69 22.75h3.91c.18 0 .34-.15.34-.33V7.74c0-.18-.16-.33-.34-.33h-3.91c-.18 0-.34.15-.34.33v14.68c.01.18.16.33.34.33Z"/><path fill="#FFF" fill-rule="evenodd" d="M57.39 7.42c3.84.26 6.96 3.33 7.23 7.11.31 4.48-3.29 8.22-7.78 8.22-1.14 0-2.23-.25-3.21-.69v4.97c0 .14-.08.26-.21.31l-4.09 1.63c-.13.05-.28-.04-.28-.18V15.08c0-4.42 3.79-7.97 8.34-7.66Zm-3.76 7.66c0 1.74 1.44 3.16 3.21 3.16 1.78 0 3.21-1.42 3.21-3.16 0-1.75-1.43-3.17-3.21-3.17-1.77 0-3.21 1.42-3.21 3.17Z"/><path fill="#FFF" d="M41.66 11.1h.04c.75-.03 1.43.45 1.98 1.19.09.12.25.16.39.11l3.15-1.25c.17-.07.26-.27.19-.44-.8-1.87-3.2-3.3-5.76-3.3-3.33 0-6.04 2.08-6.04 4.66 0 1.38.82 2.57 1.94 3.36 1.01.7 2.21 1.15 3.4 1.46.02 0 .03.01.05.01.02.01.04.01.06.02 1.6.35 1.83.76 1.83 1.17 0 .54-.66.97-1.46.97-.84.05-1.58-.51-2.16-1.37a.333.333 0 0 0-.4-.12l-3.12 1.25c-.17.07-.25.26-.18.43.89 2.38 3.3 3.5 5.86 3.5 3.33 0 6.04-2.08 6.04-4.66 0-.56-.13-1.1-.37-1.6-.23-.47-.82-1.48-2.34-2.19-.38-.17-1.06-.4-1.77-.65-.91-.31-1.89-.64-2.35-.9-.29-.15-.45-.41-.45-.68 0-.54.66-.97 1.47-.97ZM27.74 7.68a.197.197 0 0 0-.19-.27H24.6c-4.29 0-7.77 3.42-7.77 7.65v7.36c0 .18.15.33.33.33h3.91c.19 0 .34-.15.34-.33v-7.36c0-1.74 1.43-3.15 3.2-3.15h1.23c.08 0 .16-.05.19-.12l1.71-4.11Z"/></g></svg>