<svg xmlns="http://www.w3.org/2000/svg" width="130" height="29" fill="none"><defs><clipPath id="a"><rect width="129" height="28" fill="#fff" fill-opacity="0" rx="-.5" transform="translate(.5 .5)"/></clipPath></defs><rect width="129" height="28" fill="none" rx="-.5" transform="translate(.5 .5)"/><g clip-path="url(#a)"><path fill="#FE5000" d="M22.28 4.97c-4.96-.35-10.48-.35-15.44 0-1.04.08-1.83.87-1.91 1.84-.25 3.1-.28 7.76-.05 10.86.07 1.03.98 1.91 2.2 1.91h3.83v4.7H7.09c-3.51 0-6.66-2.59-6.93-6.26-.25-3.35-.21-8.24.06-11.59C.49 3.08 3.2.51 6.5.27c5.18-.37 10.94-.37 16.12 0 3.3.24 6.01 2.81 6.28 6.16.27 3.35.26 8.24.01 11.59-.27 3.67-3.41 6.27-6.92 6.27h-3.78L10.91 29v-4.72l7.3-4.7H22c1.22 0 2.12-.88 2.2-1.91.23-3.1.24-7.76-.01-10.86-.08-.97-.87-1.76-1.91-1.84Z"/><path fill="#000" d="M36.34 20.69h11.43v-2.86H39.8V3.43h-3.46v17.26ZM49.42 20.69h3.37V7.87h-3.37v12.82Zm-.27-16.17c0 1.1.82 1.94 1.96 1.94 1.13 0 1.95-.84 1.95-1.94 0-1.11-.82-1.95-1.95-1.95-1.14 0-1.96.84-1.96 1.95ZM65.98 7.87h-3.36l-2.77 9.39-2.78-9.39h-3.36l4.38 12.82h3.51l4.38-12.82ZM71.98 20.98c2.85 0 5.15-1.7 5.6-4.04h-2.95c-.32.89-1.21 1.63-2.65 1.63-1.95 0-2.72-1.31-2.72-2.81v-.32h8.41v-2.25c0-3.08-1.92-5.62-5.73-5.62-3.86 0-5.94 2.47-5.94 5.94v1.75c0 3.6 2.35 5.72 5.98 5.72Zm-2.72-8.03c0-1.73.75-3.01 2.68-3.01 1.8 0 2.64 1.21 2.64 2.81v.32h-5.32v-.12ZM86.62 21.03c4.38 0 7.07-2.96 7.25-6.48h-3.22c-.22 1.95-1.46 3.65-4.03 3.65-2.9 0-4.13-1.98-4.13-4.74v-2.81c0-2.76 1.23-4.73 4.13-4.73 2.57 0 3.81 1.7 4.03 3.65h3.22c-.18-3.53-2.87-6.48-7.25-6.48-5.22 0-7.57 3.32-7.57 7.74v2.46c0 4.41 2.35 7.74 7.57 7.74ZM95.69 20.69h3.37v-7.6c0-1.72.96-2.61 2.47-2.61 1.64 0 2.35 1.06 2.35 2.54v7.67h3.37v-8.21c0-3.03-1.76-4.91-4.55-4.91-1.66 0-2.97.72-3.64 1.83V2.69h-3.37v18ZM113.67 20.98c1.48 0 3.12-.61 3.71-1.48v1.19h3.24V12.5c0-2.98-2.2-4.93-5.42-4.93-2.77 0-4.77 1.33-5.51 3.82h3.11c.35-.69 1.07-1.2 2.23-1.2 1.39 0 2.23.88 2.23 2.07v1.75c-.6-.5-1.73-1.09-3.27-1.09-3.09 0-5.19 1.28-5.19 4.07 0 2.49 1.98 3.99 4.87 3.99Zm.87-2.22c-1.41 0-2.48-.69-2.48-1.87 0-1.18.99-1.82 2.57-1.82 1.51 0 2.63.66 2.63 1.8 0 1.08-1.24 1.89-2.72 1.89ZM126.91 20.69h2.32v-2.72h-1.36c-.89 0-1.21-.34-1.21-1.18v-6.21h2.75V7.87h-2.75v-3.5h-3.39v3.5h-1.83v2.71h1.83v6.46c0 2.27 1.16 3.65 3.64 3.65Z"/></g></svg>