<svg xmlns="http://www.w3.org/2000/svg" width="130" height="31" fill="none"><defs><clipPath id="a"><rect width="129" height="30" fill="#fff" fill-opacity="0" rx="-.5" transform="translate(.5 .5)"/></clipPath></defs><rect width="129" height="30" fill="none" rx="-.5" transform="translate(.5 .5)"/><g clip-path="url(#a)"><path fill="#FFF" d="M96.83 9.01c-.8 0-1.6.16-2.34.47-.74.32-1.41.77-1.97 1.35V4.68c-.01-.1-.04-.19-.11-.25a.363.363 0 0 0-.26-.11h-2.2c-.09 0-.18.04-.25.11-.07.06-.11.15-.11.25v16.63c0 .09.04.18.11.25.07.06.16.1.25.1h2.2a.4.4 0 0 0 .26-.1c.07-.07.1-.16.11-.25v-1.15a5.82 5.82 0 0 0 1.97 1.35c.74.31 1.54.48 2.34.48 3.44 0 6.21-2.91 6.21-6.49 0-3.59-2.77-6.49-6.21-6.49Zm-.5 10.38c-2.09 0-3.78-1.72-3.8-3.85v-.09c.04-2.14 1.71-3.85 3.8-3.85 2.1 0 3.79 1.75 3.79 3.89 0 2.15-1.71 3.89-3.79 3.89v.01Zm14.81-10.38c-3.71 0-6.72 2.9-6.72 6.49 0 3.58 3.01 6.49 6.72 6.49s6.72-2.91 6.72-6.49c0-3.59-3.01-6.49-6.72-6.49Zm-.02 10.38c-2.1 0-3.79-1.75-3.79-3.89 0-2.15 1.71-3.9 3.79-3.9 2.09 0 3.8 1.75 3.8 3.9 0 2.14-1.71 3.89-3.8 3.89ZM70.06 9.33h-2.2c-.09 0-.18.04-.25.1-.07.07-.11.16-.11.25v1.15a5.92 5.92 0 0 0-1.97-1.35c-.74-.31-1.54-.48-2.35-.48-3.43 0-6.21 2.91-6.21 6.49 0 3.59 2.78 6.49 6.21 6.49.81 0 1.61-.16 2.35-.47.74-.32 1.41-.77 1.97-1.35v1.15c0 .09.04.18.11.25.07.06.16.1.25.1h2.2a.4.4 0 0 0 .26-.1c.06-.07.1-.16.1-.25V9.68c0-.09-.04-.18-.1-.25a.4.4 0 0 0-.26-.1Zm-6.37 10.06c-2.1 0-3.79-1.75-3.79-3.89 0-2.15 1.7-3.9 3.79-3.9 2.08 0 3.78 1.72 3.79 3.85v.09c-.01 2.14-1.71 3.85-3.79 3.85ZM81.05 9.01a6.008 6.008 0 0 0-4.32 1.82V9.68a.358.358 0 0 0-.36-.35h-2.2a.358.358 0 0 0-.36.35v16.63c0 .1.04.19.11.25.06.07.15.11.25.11h2.2c.1 0 .19-.04.25-.11.07-.06.11-.15.11-.25v-6.15a5.92 5.92 0 0 0 1.97 1.35c.75.31 1.54.48 2.35.48 3.43 0 6.21-2.91 6.21-6.49 0-3.59-2.78-6.49-6.21-6.49Zm-.51 10.38c-2.08 0-3.78-1.72-3.79-3.85v-.09c.03-2.14 1.71-3.85 3.79-3.85 2.1 0 3.8 1.75 3.8 3.89 0 2.15-1.7 3.89-3.8 3.89v.01ZM50.39 9.01c-.81 0-1.59.23-2.27.66-.68.43-1.23 1.04-1.58 1.76-.8-1.51-2.41-2.44-4.14-2.42-.66 0-1.31.15-1.9.45-.59.3-1.1.73-1.5 1.26V9.68c0-.09-.04-.18-.1-.25a.4.4 0 0 0-.26-.1h-2.2c-.09 0-.18.04-.25.1-.07.07-.11.16-.11.25v11.63c0 .09.04.18.11.25.07.06.16.1.25.1h2.2a.4.4 0 0 0 .26-.1c.06-.07.1-.16.1-.25v-6.96c.09-1.55 1.19-2.79 2.53-2.79 1.4 0 2.57 1.14 2.57 2.65v7.1c0 .09.04.18.1.25.07.07.16.1.26.1h2.21c.1 0 .19-.03.26-.1s.1-.16.11-.25l-.02-7.23c.2-1.42 1.23-2.52 2.5-2.52 1.39 0 2.56 1.14 2.56 2.65v7.1c0 .09.04.18.1.25.07.07.16.1.26.1h2.22a.358.358 0 0 0 .36-.35L55 13.32c0-2.39-2.07-4.31-4.61-4.31Zm79.31 12.15-3.81-5.7 3.78-5.65c.1-.14.05-.35-.1-.45a.374.374 0 0 0-.18-.05h-2.55c-.19 0-.38.1-.47.26l-2.22 3.66-2.22-3.64a.558.558 0 0 0-.47-.26h-2.55a.324.324 0 0 0-.28.5l3.78 5.65-3.81 5.7c-.1.14-.05.35.1.45.05.03.11.05.18.05h2.54c.2 0 .38-.1.48-.26l2.26-3.71 2.27 3.71c.1.16.28.26.48.26h2.51c.18 0 .33-.15.33-.33 0-.06-.02-.12-.05-.19ZM14.6 1.14C6.53 1.14 0 7.57 0 15.5c0 7.92 6.53 14.35 14.6 14.35 8.06 0 14.6-6.43 14.6-14.35 0-7.93-6.54-14.36-14.6-14.36Zm6.93 17.87c-5 4.91-13.91 3.35-13.91 3.35s-1.61-8.75 3.4-13.68c2.77-2.73 7.37-2.61 10.28.23 2.91 2.84 3 7.38.23 10.1Zm-5.26-9.46-1.43 2.89-2.94 1.41 2.94 1.4 1.43 2.89 1.43-2.89 2.94-1.4-2.94-1.41-1.43-2.89Z"/></g></svg>