<svg xmlns="http://www.w3.org/2000/svg" width="130" height="25" fill="none"><defs><clipPath id="a"><rect width="129" height="24" fill="#fff" fill-opacity="0" rx="-.5" transform="translate(.5 .5)"/></clipPath></defs><rect width="129" height="24" fill="none" rx="-.5" transform="translate(.5 .5)"/><g clip-path="url(#a)"><path fill="#FFF" d="M114.32 12.6c-.67-.44-1.41-.76-2.1-1.15-.46-.25-.94-.48-1.33-.8-.67-.55-.53-1.63.16-2.1 1.01-.67 2.66-.3 2.85 1.07 0 .03.03.05.06.05h1.51c.04 0 .07-.03.05-.08-.01-.43-.12-.85-.31-1.23-.19-.39-.46-.72-.79-.99-.62-.48-1.37-.74-2.15-.74-3.99 0-4.36 4.24-2.21 5.57.25.15 2.36 1.21 3.1 1.67.76.47.99 1.31.67 1.97-.3.62-1.06 1.04-1.83.99-.83-.05-1.48-.5-1.71-1.21-.04-.12-.06-.37-.06-.47 0-.02-.01-.03-.02-.04-.01-.02-.02-.02-.04-.02h-1.64c-.02 0-.05.03-.05.06 0 1.18.29 1.84 1.09 2.44.76.56 1.59.81 2.44.81 2.24 0 3.4-1.28 3.62-2.59.22-1.28-.16-2.44-1.31-3.21Zm-71.2-5.75h-1.53c-.01 0-.02.01-.03.01-.01.01-.01.02-.02.03l-1.34 4.44c0 .01-.01.03-.02.04-.01.01-.03.02-.04.02-.02 0-.04-.01-.05-.02-.01-.01-.01-.03-.01-.04l-1.35-4.44c-.01-.03-.03-.04-.06-.04h-2.5c-.03 0-.06.03-.06.05v11.34c0 .03.03.06.06.06h1.64c.03 0 .06-.03.06-.06V9.62c0-.07.1-.08.11-.02l1.36 4.47.1.3c0 .04.02.05.05.05h1.27c.03 0 .04-.02.05-.04l.1-.32 1.36-4.47c.01-.06.11-.04.11.03v8.61c0 .03.03.06.06.06h1.64c.03 0 .06-.03.06-.06V6.9c0-.02-.03-.05-.06-.05h-.96Zm46.09 0c-.01 0-.02 0-.03.01-.02.01-.02.02-.03.03l-1.34 4.44c0 .01-.01.03-.02.04-.01.01-.03.02-.05.02-.01 0-.03-.01-.04-.02a.076.076 0 0 1-.02-.04l-1.34-4.44c0-.03-.02-.04-.05-.04h-2.5c-.03 0-.06.03-.06.05v11.34c0 .03.03.06.06.06h1.64c.02 0 .05-.03.05-.06V9.62c0-.07.1-.08.13-.02l1.36 4.47.09.3c.01.04.03.05.06.05h1.25c.01 0 .03-.01.04-.01.01-.01.02-.02.02-.03l.1-.32 1.36-4.47c.02-.06.11-.04.11.03v8.61c0 .03.03.06.06.06h1.65c.03 0 .06-.03.06-.06V6.9c0-.02-.03-.05-.06-.05h-2.5Zm-21.15 0h-7.75c-.02 0-.05.03-.05.05v1.43c0 .03.03.06.05.06h3v9.85c0 .04.03.07.05.07H65c.03 0 .06-.03.06-.06V8.38h3c.03 0 .06-.03.06-.06V6.9c0-.02-.02-.05-.06-.05Zm9.67 11.45h1.5c.03 0 .06-.05.05-.08L76.2 6.85c0-.03-.03-.04-.06-.04h-2.15c-.01 0-.02 0-.03.01-.01.01-.02.02-.02.03l-3.09 11.36c-.01.04.02.08.06.08h1.49c.03 0 .05-.01.06-.04l.89-3.3c.01-.03.03-.04.06-.04h3.3c.03 0 .05.02.06.04l.89 3.3c.02.03.05.05.06.05h.01Zm-3.92-5.01 1.2-4.43c0-.02.01-.03.02-.04.01-.02.02-.02.04-.02s.03 0 .04.02c.01.01.02.02.02.04l1.19 4.43c.02.04-.01.08-.05.08h-2.39c-.05 0-.08-.04-.07-.08Zm29.37 5.01h1.5c.03 0 .06-.05.06-.08l-3.09-11.38c-.01-.03-.03-.04-.06-.04h-2.14c-.01 0-.02 0-.04.01-.01.01-.01.02-.02.03l-3.08 11.37c-.01.04.02.07.06.07h1.49c.03 0 .05-.01.06-.03l.89-3.31c.01-.03.03-.04.06-.04h3.3c.03 0 .05.02.06.04l.9 3.31c0 .02.03.04.05.04v.01Zm-3.92-5.01 1.21-4.43c0-.01.01-.02.02-.03.01-.01.02-.01.03-.01.01 0 .03 0 .04.01.01.01.01.02.02.03l1.2 4.43c0 .04-.02.08-.06.08h-2.4c-.03 0-.07-.04-.06-.08ZM50.8 16.62V13.1c0-.03.02-.06.05-.06h4.37c.03 0 .06-.03.06-.05v-1.42c0-.01-.01-.03-.02-.04-.01-.01-.02-.02-.04-.02h-4.36c-.03 0-.05-.03-.05-.06v-3c0-.03.02-.06.05-.06h4.97c.03 0 .06-.03.06-.06V6.92c0-.02 0-.03-.02-.04-.01-.01-.02-.02-.04-.02h-6.72c-.02 0-.03.01-.04.02-.01.01-.02.02-.02.04v11.32c0 .03.03.06.06.06h6.93c.03 0 .06-.03.06-.06v-1.5c0-.02-.01-.03-.02-.04a.076.076 0 0 0-.04-.02h-5.19c-.03-.01-.04-.03-.04-.07l-.01.01Zm78.5 1.58-5.67-5.86c-.01-.01-.01-.03-.01-.04 0-.02 0-.03.01-.04l5.1-5.3c.02-.01.03-.02.03-.03.01-.02.01-.03 0-.04-.01-.02-.02-.03-.03-.03a.03.03 0 0 0-.04 0h-2.09c-.02 0-.03.01-.04.02l-4.33 4.49c-.01.01-.02.01-.03.02-.01 0-.02 0-.03-.01-.01 0-.02-.01-.02-.02-.01 0-.01-.01-.02-.02V6.92c0-.02 0-.03-.01-.04-.02-.01-.03-.02-.05-.02h-1.64c-.01 0-.03.01-.04.02-.01.01-.02.02-.02.04v11.33c0 .03.03.06.06.06h1.64c.03 0 .06-.03.06-.06v-4.99c0-.05.07-.08.1-.04l4.92 5.06c0 .01.01.02.03.03h2.09c.04-.01.08-.08.03-.11Z"/><path fill="#E17726" d="m24.91.75-9.93 7.37 1.85-4.34L24.91.75Z"/><path stroke="#E17726" stroke-linejoin="round" stroke-width=".325" d="m14.98 8.12 1.85-4.34L24.91.75l-9.93 7.37Z"/><path fill="#E27625" d="m2.01.75 9.84 7.43-1.76-4.4L2.01.75Zm19.32 17.07-2.64 4.05 5.66 1.56 1.61-5.52-4.63-.09Zm-20.38.09 1.61 5.52 5.65-1.56-2.63-4.05-4.63.09Z"/><path stroke="#E27625" stroke-linejoin="round" stroke-width=".325" d="m11.85 8.18-1.76-4.4L2.01.75l9.84 7.43Zm6.84 13.69 5.66 1.56 1.61-5.52-4.63-.09-2.64 4.05ZM2.56 23.43l5.65-1.56-2.63-4.05-4.63.09 1.61 5.52Z"/><path fill="#E27625" d="m7.91 10.99-1.57 2.38 5.59.25-.18-6.03L7.91 11v-.01ZM19 11l-3.9-3.49-.12 6.11 5.59-.25L19 11ZM8.21 21.87l3.39-1.64-2.91-2.27-.48 3.91Zm7.11-1.65 3.37 1.65-.46-3.92-2.91 2.27Z"/><path stroke="#E27625" stroke-linejoin="round" stroke-width=".325" d="m6.34 13.37 5.59.25-.18-6.03L7.91 11v-.01l-1.57 2.38Zm8.76-5.86-.12 6.11 5.59-.25L19 11l-3.9-3.49Zm-3.5 12.72-2.91-2.27-.48 3.91 3.39-1.64Zm7.09 1.64-.46-3.92-2.91 2.27 3.37 1.65Z"/><path fill="#D5BFB2" d="m18.69 21.87-3.37-1.64.27 2.2-.03.93 3.13-1.49Zm-10.48 0 3.14 1.49-.02-.93.27-2.2-3.39 1.64Z"/><path stroke="#D5BFB2" stroke-linejoin="round" stroke-width=".325" d="m15.32 20.23.27 2.2-.03.93 3.13-1.49-3.37-1.64Zm-3.97 3.13-.02-.93.27-2.2-3.39 1.64 3.14 1.49Z"/><path fill="#FFF" d="m11.41 16.5-2.8-.82 1.98-.91.82 1.73Zm4.09 0 .83-1.74 1.99.91-2.82.83Z"/><path stroke="#FFF" stroke-linejoin="round" stroke-width=".325" d="m8.61 15.68 1.98-.91.82 1.73-2.8-.82Zm7.72-.92 1.99.91-2.82.83.83-1.74Z"/><path fill="#CC6228" d="m8.21 21.87.49-4.05-3.12.09 2.63 3.96Zm10-4.05.48 4.05 2.64-3.96-3.12-.09Zm2.37-4.45-5.6.25.52 2.88.83-1.74 1.99.91 2.26-2.3ZM8.61 15.68l1.98-.91.82 1.73.53-2.88-5.6-.25 2.27 2.31Z"/><path stroke="#CC6228" stroke-linejoin="round" stroke-width=".325" d="m8.7 17.82-3.12.09 2.63 3.96.49-4.05Zm9.99 4.05 2.64-3.96-3.12-.09.48 4.05Zm-3.71-8.25.52 2.88.83-1.74 1.99.91 2.26-2.3-5.6.25Zm-4.39 1.15.82 1.73.53-2.88-5.6-.25 2.27 2.31 1.98-.91Z"/><path fill="#E27525" d="m6.34 13.37 2.35 4.58-.08-2.27-2.27-2.31Zm11.98 2.31-.09 2.27 2.34-4.58-2.25 2.31Zm-6.38-2.06-.53 2.88.66 3.4.16-4.48-.29-1.8Zm3.04 0-.28 1.79.14 4.49.66-3.4-.52-2.88Z"/><path stroke="#E27525" stroke-linejoin="round" stroke-width=".325" d="m8.69 17.95-.08-2.27-2.27-2.31 2.35 4.58Zm9.54 0 2.34-4.58-2.25 2.31-.09 2.27Zm-6.82-1.45.66 3.4.16-4.48-.29-1.8-.53 2.88Zm3.29-1.09.14 4.49.66-3.4-.52-2.88-.28 1.79Z"/><path fill="#F5841F" d="m15.5 16.5-.66 3.4.47.33 2.92-2.27.09-2.28-2.82.82Zm-6.89-.82.08 2.27 2.91 2.27.47-.32-.66-3.4-2.81-.82h.01Z"/><path stroke="#F5841F" stroke-linejoin="round" stroke-width=".325" d="m14.84 19.9.47.33 2.92-2.27.09-2.28-2.82.82-.66 3.4Zm-6.15-1.95 2.91 2.27.47-.32-.66-3.4-2.81-.82h.01l.08 2.27Z"/><path fill="#C0AC9D" d="m15.56 23.36.03-.93-.26-.22h-3.75l-.25.22.02.93-3.14-1.49 1.1.91 2.23 1.53h3.82l2.24-1.54 1.09-.9-3.13 1.49Z"/><path stroke="#C0AC9D" stroke-linejoin="round" stroke-width=".325" d="m15.59 22.43-.26-.22h-3.75l-.25.22.02.93-3.14-1.49 1.1.91 2.23 1.53h3.82l2.24-1.54 1.09-.9-3.13 1.49.03-.93Z"/><path fill="#FFF" d="m15.31 20.22-.47-.32h-2.77l-.47.33-.27 2.2.25-.22h3.75l.26.22-.28-2.2v-.01Z"/><path stroke="#FFF" stroke-linejoin="round" stroke-width=".325" d="M14.84 19.9h-2.77l-.47.33-.27 2.2.25-.22h3.75l.26.22-.28-2.2v-.01l-.47-.32Z"/><path fill="#763E1A" d="m25.33 8.59.83-4.05L24.91.75l-9.6 7.12L19 10.99l5.22 1.52 1.15-1.34-.5-.36.79-.73-.6-.47.79-.61-.53-.41h.01ZM.75 4.53l.85 4.06-.55.41.81.6-.6.48.78.73-.5.36 1.15 1.34L7.91 11l3.69-3.13L2.01.75.75 4.53Z"/><path stroke="#763E1A" stroke-linejoin="round" stroke-width=".325" d="M26.16 4.54 24.91.75l-9.6 7.12L19 10.99l5.22 1.52 1.15-1.34-.5-.36.79-.73-.6-.47.79-.61-.53-.41h.01l.83-4.05ZM1.6 8.59 1.05 9l.81.6-.6.48.78.73-.5.36 1.15 1.34L7.91 11l3.69-3.13L2.01.75.75 4.53l.85 4.06Z"/><path fill="#F5841F" d="M24.22 12.51 19 11l1.58 2.37-2.35 4.58 3.1-.04h4.63l-1.74-5.4ZM7.91 10.99l-5.22 1.52-1.74 5.4h4.64l3.1.04-2.35-4.58 1.58-2.38h-.01Zm7.07 2.63.34-5.75 1.51-4.09h-6.74l1.51 4.09.34 5.75.13 1.81v4.47h2.77l.01-4.47.13-1.81Z"/><path stroke="#F5841F" stroke-linejoin="round" stroke-width=".325" d="m19 11 1.58 2.37-2.35 4.58 3.1-.04h4.63l-1.74-5.4L19 11ZM2.69 12.51l-1.74 5.4h4.64l3.1.04-2.35-4.58 1.58-2.38h-.01l-5.22 1.52Zm12.63-4.64 1.51-4.09h-6.74l1.51 4.09.34 5.75.13 1.81v4.47h2.77l.01-4.47.13-1.81.34-5.75Z"/></g></svg>