<svg xmlns="http://www.w3.org/2000/svg" width="130" height="30" fill="none"><defs><clipPath id="a"><rect width="129" height="29" fill="#fff" fill-opacity="0" rx="-.5" transform="translate(.5 .5)"/></clipPath></defs><rect width="129" height="29" fill="none" rx="-.5" transform="translate(.5 .5)"/><g fill-rule="evenodd" clip-path="url(#a)"><path fill="#FFF" d="M101.14 20.68c3.35 0 6.08-2.66 6.08-5.93 0-3.28-2.73-5.94-6.08-5.94s-6.07 2.66-6.07 5.94c0 3.27 2.72 5.93 6.07 5.93ZM107.22 0H110.1v23.52h-2.88v-2.35a9.014 9.014 0 0 1-6.08 2.33c-4.93 0-8.95-3.93-8.95-8.75 0-4.83 4.02-8.75 8.95-8.75 2.28 0 4.42.82 6.08 2.33V0ZM41.45 20.58c3.35 0 6.08-2.66 6.08-5.94 0-3.27-2.73-5.93-6.08-5.93s-6.08 2.66-6.08 5.93c0 3.28 2.73 5.94 6.08 5.94ZM35.37 8.22a9.042 9.042 0 0 1 6.08-2.32c4.94 0 8.95 3.92 8.95 8.74 0 4.83-4.01 8.75-8.95 8.75-2.27 0-4.41-.82-6.08-2.33v8.33H32.5V5.87h2.87v2.35Zm20.53 5.06c.64-2.66 3.06-4.57 5.81-4.57 2.72 0 4.99 1.87 5.6 4.57H55.9Zm5.81-7.41c-4.86 0-8.82 3.96-8.82 8.83 0 4.86 3.96 8.82 8.82 8.82 2.72 0 5.22-1.02 6.86-2.8l.85-.93.11-.12-.12-.11-1.85-1.7-.12-.11-.11.12-.85.93c-1.08 1.18-2.87 1.88-4.77 1.88-2.75 0-5.17-1.91-5.81-4.57h14.4V14.7c0-4.95-3.77-8.83-8.59-8.83Zm65.41 8.83c0 3.3-2.73 5.98-6.08 5.98s-6.07-2.68-6.07-5.98c0-3.31 2.72-5.99 6.07-5.99s6.08 2.68 6.08 5.99Zm-6.08-8.83c-4.94 0-8.95 3.96-8.95 8.83 0 4.86 4.01 8.82 8.95 8.82 4.94 0 8.96-3.96 8.96-8.82 0-4.87-4.02-8.83-8.96-8.83ZM81 5.87c-2 0-3.91.76-5.41 2.15V5.87h-2.8v17.65h2.8v-9.01c0-3.21 2.43-5.82 5.41-5.82s5.4 2.61 5.4 5.82v9.01h2.8v-9.01c0-4.76-3.68-8.64-8.2-8.64Z"/><path fill="#FF4876" d="M0 16.79h13.54V30l13.54-13.21V3.6H13.54L0 16.79Z"/></g></svg>