<svg xmlns="http://www.w3.org/2000/svg" width="130" height="29" fill="none"><defs><clipPath id="a"><rect width="129" height="28" fill="#fff" fill-opacity="0" rx="-.5" transform="translate(.5 .5)"/></clipPath></defs><rect width="129" height="28" fill="none" rx="-.5" transform="translate(.5 .5)"/><g clip-path="url(#a)"><path fill="#0068E5" d="M120.67 6.78v.04a8.71 8.71 0 0 0-4.42-1.59c-1.59-.11-3.18.22-4.6.95a8.592 8.592 0 0 0-3.44 3.19 8.632 8.632 0 0 0 0 9.01 8.592 8.592 0 0 0 3.44 3.19c1.42.73 3.01 1.06 4.6.95a8.71 8.71 0 0 0 4.42-1.59v1.61h3.66V4.13l-3.66 2.65Zm-5.03 12.12c-.99 0-1.96-.29-2.79-.83a5.036 5.036 0 0 1-2.19-5.1c.18-.97.64-1.87 1.32-2.58.69-.71 1.57-1.21 2.53-1.43.97-.22 1.97-.15 2.9.2.93.35 1.73.96 2.31 1.76.58.8.91 1.75.95 2.74v.41c-.05 1.3-.6 2.53-1.54 3.43-.94.9-2.19 1.4-3.49 1.4Zm-9.71 3.64V17.3l-7.24 5.24h7.24ZM129.84.16l-3.67 2.65v3.66l3.67-2.66V.16Zm-3.67 8.59v13.79h3.65l.02-16.45-3.67 2.66Z"/><path fill="#FFF" d="M47.2 5.21c-1.72 0-3.4.51-4.82 1.46-1.43.95-2.55 2.3-3.21 3.89a8.642 8.642 0 0 0-.49 5A8.632 8.632 0 0 0 41.06 20a8.724 8.724 0 0 0 4.44 2.37c1.69.33 3.44.16 5.03-.49a8.811 8.811 0 0 0 3.9-3.19c.95-1.42 1.46-3.1 1.46-4.81.01-1.14-.22-2.27-.65-3.32a8.644 8.644 0 0 0-1.89-2.81 8.503 8.503 0 0 0-2.82-1.88 8.601 8.601 0 0 0-3.33-.66Zm0 13.69c-1 0-1.97-.29-2.8-.85a5.011 5.011 0 0 1-1.86-2.26c-.39-.92-.49-1.93-.29-2.9.19-.98.68-1.88 1.38-2.58.71-.7 1.61-1.18 2.59-1.38.98-.19 2-.09 2.92.29.92.38 1.71 1.03 2.26 1.86.56.83.85 1.8.85 2.8 0 1.33-.54 2.61-1.48 3.55-.95.94-2.23 1.47-3.57 1.47ZM27.98 5.21c-1.51 0-3 .39-4.31 1.14-1.31.75-2.4 1.83-3.17 3.13a8.602 8.602 0 0 0-1.2 4.28c-.02 1.5.35 2.99 1.09 4.31a8.598 8.598 0 0 0 3.08 3.2c1.3.79 2.77 1.22 4.28 1.26 1.51.04 3.01-.31 4.34-1.02a8.635 8.635 0 0 0 3.26-3.03l-3.16-1.83c-.52.77-1.23 1.39-2.06 1.78-.84.39-1.77.54-2.69.44-.92-.1-1.79-.44-2.52-1.01-.74-.56-1.3-1.31-1.64-2.16h13.2c.28-1.27.27-2.58-.03-3.84-.3-1.25-.88-2.43-1.7-3.43a8.625 8.625 0 0 0-6.76-3.22h-.01Zm0 3.63a5.032 5.032 0 0 1 4.7 3.21h-9.4c.05-.13.11-.26.17-.38.41-.85 1.06-1.56 1.86-2.06s1.73-.77 2.67-.77ZM8.76 5.21c-1.83 0-3.61.57-5.09 1.64L2.27 5.8a.718.718 0 0 0-.45-.15H.01L0 28.81h3.65v-7.92a8.67 8.67 0 0 0 3.75 1.54c1.35.21 2.74.1 4.04-.32 1.3-.43 2.49-1.15 3.45-2.12.97-.96 1.7-2.14 2.12-3.44.42-1.3.53-2.68.32-4.03a8.489 8.489 0 0 0-1.55-3.73 8.703 8.703 0 0 0-7.02-3.58Zm0 13.69c-1 0-1.97-.29-2.81-.85a5.075 5.075 0 0 1-1.86-2.26 4.97 4.97 0 0 1-.28-2.9c.19-.98.67-1.88 1.38-2.58.71-.7 1.61-1.18 2.59-1.38.98-.19 1.99-.09 2.92.29.92.38 1.71 1.03 2.26 1.86.55.83.85 1.8.85 2.8a5.079 5.079 0 0 1-1.48 3.55c-.95.94-2.23 1.47-3.57 1.47Zm57.7-13.69c-1.82 0-3.59.56-5.07 1.62L60.01 5.8a.738.738 0 0 0-.45-.15h-1.81l-.02 23.16h3.66v-7.89c1.11.79 2.4 1.31 3.75 1.52 1.35.2 2.73.09 4.03-.34 1.3-.43 2.48-1.16 3.45-2.13a8.71 8.71 0 0 0 2.1-3.45c.42-1.29.52-2.67.31-4.02a8.585 8.585 0 0 0-1.56-3.72 8.47 8.47 0 0 0-3.08-2.62 8.631 8.631 0 0 0-3.93-.95Zm0 13.69c-1 0-1.98-.29-2.81-.84a5.011 5.011 0 0 1-1.86-2.26c-.39-.92-.49-1.93-.3-2.91a5.07 5.07 0 0 1 3.97-3.96c.98-.19 2-.09 2.92.29a5.037 5.037 0 0 1 3.12 4.66 5.079 5.079 0 0 1-1.48 3.55c-.95.94-2.23 1.47-3.56 1.47Zm33.23-3.21c.46-2.1.12-4.31-.96-6.18a8.7 8.7 0 0 0-4.87-3.94 8.76 8.76 0 0 0-6.27.35 8.683 8.683 0 0 0-4.4 4.45 8.649 8.649 0 0 0-.27 6.25c.7 2.04 2.13 3.76 4.02 4.8a8.724 8.724 0 0 0 6.21.87 8.716 8.716 0 0 0 5.19-3.51l-2.95-2.13a5.003 5.003 0 0 1-4.74 2.22 5.1 5.1 0 0 1-2.53-1.01 5.083 5.083 0 0 1-1.63-2.17h13.2Zm-8.5-6.85a5.032 5.032 0 0 1 4.7 3.21h-9.4a5.067 5.067 0 0 1 4.7-3.21ZM77 .16h3.66v22.38H77V.16Z"/></g></svg>