<svg xmlns="http://www.w3.org/2000/svg" width="130" height="29" fill="none"><defs><clipPath id="a"><rect width="129" height="28" fill="#fff" fill-opacity="0" rx="-.5" transform="translate(.5 .5)"/></clipPath></defs><rect width="129" height="28" fill="none" rx="-.5" transform="translate(.5 .5)"/><g fill-rule="evenodd" clip-path="url(#a)"><path fill="#FFF" d="m44.08 19.17-.02-.33h-2.8l.02.37c.17 4.11 3 6.83 8.02 6.83 4.79 0 8.04-2.44 8.04-6.14 0-1.99-.7-3.41-2.05-4.37-1.04-.74-2.27-1.16-4.33-1.6-.14-.03-.28-.06-.45-.09-.1-.02-.47-.1-.45-.09-3.73-.77-4.91-1.44-4.91-3.42 0-2.05 1.71-3.36 4.58-3.36 2.79 0 4.55 1.67 4.64 4.31l.01.34h2.77l-.01-.36c-.1-4.1-2.9-6.86-7.44-6.86-4.45 0-7.38 2.62-7.38 6.01 0 2 .71 3.38 2.05 4.31 1.03.7 2.22 1.08 4.32 1.49.1.02.2.04.32.07.08.01.16.03.32.06 1.99.39 2.87.62 3.67 1.08.99.57 1.48 1.37 1.48 2.63 0 2.17-1.86 3.41-5.13 3.41-3.12 0-5.06-1.54-5.27-4.29ZM63.19 4.04v-.35H60.42V25.64H63.19V21.5l2.92-2.79 5.21 6.79.11.14h3.45l-.44-.57-6.36-8.22 5.87-5.73.62-.61H70.8l-.11.11-7.5 7.41V4.04Zm25.92 14.97h.33l.03-.33c0-.06.01-.16.01-.27 0-.09.01-.18.01-.27 0-.09.01-.17.01-.25 0-4.44-3.01-7.72-7.44-7.72-4.43 0-7.59 3.49-7.59 7.89 0 4.53 3.02 7.92 7.62 7.92 3.47 0 6.16-2.02 7.13-5.09l.14-.46h-2.88l-.08.23c-.61 1.68-2.26 2.8-4.29 2.8-2.65 0-4.49-1.79-4.83-4.45h11.83Zm-11.74-2.35c.46-2.38 2.25-3.96 4.69-3.96 2.51 0 4.24 1.53 4.62 3.96h-9.31Zm21.23-3.74h.36V10.51h-3.38v-4.1H92.8v4.1H90v2.41h2.8v8.49c0 2.78 1.48 4.29 4.18 4.29.47 0 .88-.03 1.22-.08.21-.03.35-.06.43-.08l.27-.07v-2.52l-.44.09c-.02.01-.05.01-.1.02-.09.02-.18.03-.29.05-.26.04-.52.06-.76.06-.02.01-.05.01-.07.01-1.19 0-1.66-.55-1.66-1.92v-8.34h3.02Zm8.62 13.06c3.84 0 6.55-2.38 7.23-5.75l.08-.43h-2.79l-.07.27c-.59 2.15-2.17 3.39-4.45 3.39-2.85 0-4.81-2.2-4.81-5.37 0-3.19 1.96-5.39 4.81-5.39 2.28 0 3.86 1.23 4.45 3.39l.07.26h2.79l-.08-.42c-.68-3.37-3.39-5.76-7.23-5.76-4.46 0-7.61 3.51-7.61 7.92 0 4.38 3.15 7.89 7.61 7.89Zm12.42-21.94v-.35H116.87V25.64H119.64V16.76c0-2.6 1.61-4.12 4.06-4.12 2.34 0 3.51 1.32 3.51 3.84v9.16H129.98v-9.56c0-3.55-2.24-5.91-5.93-5.91-1.9 0-3.43.69-4.41 1.67v-7.8Z"/><path fill="#FDB300" d="M7.18.95 16.47 0l9.29.95 7.18 9.39L16.47 29 0 10.34 7.18.95Z"/><path fill="#EA6C00" d="M6.67 10.34 16.47 29 0 10.34h6.67ZM26.27 10.34 16.47 29l16.47-18.66h-6.67Z"/><path fill="#FDAD00" d="M6.67 10.34h19.6L16.47 29l-9.8-18.66Z"/><path fill="#FDD231" d="M16.47 0 7.18.95l-.51 9.39L16.47 0ZM16.47 0l9.29.95.51 9.39L16.47 0Z"/><path fill="#FDAD00" d="M32.94 10.34 25.76.95l.51 9.39h6.67ZM0 10.34 7.18.95l-.51 9.39H0Z"/><path fill="#FEEEB7" d="m16.47 0-9.8 10.34h19.6L16.47 0Z"/></g></svg>