<svg xmlns="http://www.w3.org/2000/svg" width="130" height="32" fill="none"><defs><clipPath id="a"><rect width="129" height="31" fill="#fff" fill-opacity="0" rx="-.5" transform="translate(.5 .5)"/></clipPath></defs><rect width="129" height="31" fill="none" rx="-.5" transform="translate(.5 .5)"/><g clip-path="url(#a)"><path fill="#FFF" d="M27.28 0H5.67C2.67 0 .24 2.39.24 5.34v21.28c0 2.95 2.43 5.34 5.43 5.34h21.61c3 0 5.43-2.39 5.43-5.34V5.34c0-2.95-2.43-5.34-5.43-5.34Zm-.48 24.46c0 .93-.76 1.69-1.71 1.69H7.86c-.95 0-1.72-.76-1.72-1.69V7.49c0-.93.77-1.68 1.72-1.68h17.23c.95 0 1.71.75 1.71 1.68v16.97Zm-13.77-4.14c-.55 0-.98-.44-.98-.97v-6.78c0-.54.43-.97.98-.97h6.89c.54 0 .98.43.98.97v6.77c0 .54-.44.97-.98.97h-6.89v.01Zm28.28-.47h3.55c.17 1.98 1.53 3.52 4.28 3.52 2.45 0 3.96-1.19 3.96-2.99 0-1.69-1.18-2.45-3.31-2.94l-2.75-.58c-2.98-.64-5.23-2.53-5.23-5.62 0-3.4 3.07-5.73 7.06-5.73 4.23 0 6.94 2.19 7.18 5.41h-3.43c-.41-1.51-1.68-2.41-3.74-2.41-2.19 0-3.7 1.16-3.7 2.65 0 1.48 1.3 2.38 3.55 2.88l2.72.58c2.98.64 5.02 2.41 5.02 5.53 0 3.95-3.01 6.31-7.33 6.31-4.84-.01-7.53-2.59-7.83-6.61Zm27.84 12.11v-5.79l.23-2.54h-.23c-.81 1.83-2.52 2.83-4.84 2.83-3.74 0-6.52-3-6.52-7.59s2.78-7.59 6.52-7.59c2.29 0 3.91 1.06 4.84 2.71h.23v-2.43h3.07v20.4h-3.3Zm.11-13.09c0-2.94-1.82-4.65-4.05-4.65-2.24 0-4.06 1.71-4.06 4.65 0 2.93 1.82 4.65 4.06 4.65 2.23 0 4.05-1.71 4.05-4.65Zm5.64 1.51v-8.82h3.31v8.53c0 2.31 1.13 3.43 3.01 3.43 2.32 0 3.82-1.63 3.82-4.17v-7.79h3.31v14.61h-3.07v-3.03h-.24c-.72 1.95-2.31 3.31-4.77 3.31-3.54 0-5.37-2.22-5.37-6.07Zm15.46 1.71c0-2.74 1.94-4.34 5.39-4.53l4.08-.26v-1.14c0-1.37-1.01-2.2-2.81-2.2-1.65 0-2.64.83-2.9 2h-3.3c.35-2.97 2.84-4.68 6.2-4.68 3.79 0 6.11 1.6 6.11 4.68v10.21h-3.07v-2.71h-.23c-.7 1.8-2.15 2.99-4.93 2.99-2.66 0-4.54-1.76-4.54-4.36Zm9.47-1.8v-.77l-3.33.23c-1.79.11-2.61.77-2.61 2.08 0 1.11.93 1.92 2.23 1.92 2.35 0 3.71-1.49 3.71-3.46Zm5.77 5.88V11.56h3.07v2.8h.23c.43-1.91 1.91-2.8 4.11-2.8h1.51v2.94h-1.88c-2.15 0-3.74 1.37-3.74 3.97v7.7h-3.3Zm24.03-6.7h-11.27c.17 2.68 2.09 4.19 4.2 4.19 1.8 0 2.93-.71 3.57-1.91h3.27c-.9 2.97-3.53 4.7-6.87 4.7-4.37 0-7.44-3.22-7.44-7.58 0-4.37 3.15-7.59 7.47-7.59 4.35 0 7.19 2.94 7.19 6.59 0 .71-.06 1.08-.12 1.6Zm-3.15-2.26c-.12-2.02-1.83-3.39-3.91-3.39-1.98 0-3.62 1.23-4.03 3.39h7.94Z"/></g></svg>