<svg width="25.487305" height="24.395508" viewBox="0 0 25.4873 24.3955" fill="none" xmlns="http://www.w3.org/2000/svg" xmlns:xlink="http://www.w3.org/1999/xlink">
	<desc>
			Created with Pixso.
	</desc>
	<defs/>
	<path id="Star" d="M11.3 0.91L8.72 6.46C8.49 6.96 8.02 7.31 7.47 7.37L1.4 8.11C0.05 8.27 -0.49 9.93 0.5 10.85L4.99 15.02C5.39 15.39 5.57 15.95 5.46 16.49L4.29 22.49C4.03 23.82 5.44 24.84 6.62 24.19L11.97 21.21C12.45 20.94 13.03 20.94 13.51 21.21L18.86 24.19C20.04 24.84 21.45 23.82 21.19 22.49L20.01 16.49C19.91 15.95 20.09 15.39 20.49 15.02L24.97 10.85C25.96 9.93 25.42 8.27 24.08 8.11L18.01 7.37C17.46 7.31 16.99 6.96 16.76 6.46L14.18 0.91C13.61 -0.31 11.87 -0.31 11.3 0.91Z" fill="#FFDF00" fill-opacity="1.000000" fill-rule="evenodd"/>
</svg>
