<svg width="16.000977" height="16.000000" viewBox="0 0 16.001 16" fill="none" xmlns="http://www.w3.org/2000/svg" xmlns:xlink="http://www.w3.org/1999/xlink">
	<desc>
			Created with Pixso.
	</desc>
	<defs/>
	<rect id="Dribbble - Negative" rx="-0.218845" width="15.562309" height="15.562309" transform="translate(0.218845 0.218845)" fill="#FFFFFF" fill-opacity="0"/>
	<path id="Vector" d="M8 0C3.58 0 0 3.58 0 8C0 12.41 3.58 16 8 16C12.4 16 16 12.41 16 8C16 3.58 12.4 0 8 0ZM13.28 3.68C14.23 4.85 14.81 6.33 14.82 7.93C14.6 7.89 12.34 7.43 10.07 7.72C10.02 7.6 9.97 7.48 9.92 7.36C9.78 7.03 9.63 6.69 9.47 6.37C11.99 5.35 13.13 3.87 13.28 3.68ZM8 1.18C9.73 1.18 11.32 1.83 12.53 2.89C12.4 3.07 11.37 4.45 8.94 5.36C7.82 3.3 6.58 1.62 6.39 1.36C6.9 1.24 7.44 1.18 8 1.18ZM5.09 1.82C5.27 2.06 6.49 3.75 7.62 5.77C4.43 6.62 1.61 6.6 1.31 6.6C1.75 4.48 3.18 2.72 5.09 1.82ZM1.16 8C1.16 7.93 1.16 7.86 1.16 7.8C1.45 7.8 4.77 7.85 8.18 6.82C8.38 7.21 8.56 7.6 8.73 7.99C8.65 8.01 8.55 8.04 8.46 8.06C4.94 9.2 3.07 12.31 2.91 12.57C1.83 11.36 1.16 9.76 1.16 8ZM8 14.83C6.42 14.83 4.96 14.29 3.81 13.39C3.93 13.14 5.31 10.47 9.17 9.12C9.18 9.11 9.19 9.11 9.21 9.11C10.17 11.6 10.56 13.69 10.67 14.29C9.84 14.64 8.94 14.83 8 14.83ZM11.81 13.66C11.74 13.24 11.37 11.25 10.48 8.79C12.62 8.45 14.5 9.01 14.73 9.09C14.43 10.99 13.34 12.63 11.81 13.66Z" fill="#FFFFFF" fill-opacity="1.000000" fill-rule="evenodd"/>
</svg>
