<svg width="16.000000" height="16.000000" viewBox="0 0 16 16" fill="none" xmlns="http://www.w3.org/2000/svg" xmlns:xlink="http://www.w3.org/1999/xlink">
	<desc>
			Created with Pixso.
	</desc>
	<defs>
		<clipPath id="clip13_2496">
			<rect id="Instagram - Negative" rx="-0.218845" width="15.562309" height="15.562309" transform="translate(0.218845 0.218845)" fill="white" fill-opacity="0"/>
		</clipPath>
	</defs>
	<rect id="Instagram - Negative" rx="-0.218845" width="15.562309" height="15.562309" transform="translate(0.218845 0.218845)" fill="#FFFFFF" fill-opacity="0"/>
	<g clip-path="url(#clip13_2496)">
		<path id="Vector" d="M8 1.44C10.14 1.44 10.39 1.45 11.23 1.48C12.01 1.52 12.43 1.65 12.71 1.76C13.09 1.9 13.35 2.08 13.63 2.35C13.91 2.64 14.09 2.9 14.23 3.27C14.34 3.55 14.47 3.98 14.5 4.76C14.54 5.6 14.55 5.85 14.55 7.99C14.55 10.13 14.54 10.38 14.5 11.22C14.47 12 14.34 12.42 14.23 12.7C14.09 13.08 13.91 13.35 13.63 13.62C13.35 13.9 13.09 14.08 12.71 14.22C12.43 14.33 12.01 14.46 11.23 14.5C10.39 14.53 10.13 14.54 8 14.54C5.86 14.54 5.61 14.53 4.77 14.5C3.99 14.46 3.56 14.33 3.28 14.22C2.91 14.08 2.64 13.9 2.36 13.62C2.08 13.34 1.91 13.08 1.77 12.7C1.66 12.42 1.53 12 1.49 11.22C1.45 10.38 1.44 10.12 1.44 7.99C1.44 5.85 1.45 5.6 1.49 4.76C1.53 3.98 1.66 3.55 1.77 3.27C1.91 2.9 2.09 2.63 2.36 2.35C2.64 2.07 2.91 1.9 3.28 1.76C3.56 1.65 3.99 1.52 4.77 1.48C5.61 1.45 5.86 1.44 8 1.44ZM8 0C5.83 0 5.55 0 4.7 0.04C3.85 0.08 3.27 0.22 2.76 0.41C2.23 0.62 1.79 0.89 1.34 1.34C0.89 1.78 0.62 2.23 0.42 2.75C0.22 3.26 0.08 3.85 0.04 4.7C0.01 5.55 0 5.82 0 8C0 10.17 0.01 10.44 0.04 11.29C0.08 12.14 0.22 12.73 0.42 13.23C0.62 13.76 0.89 14.21 1.34 14.65C1.79 15.1 2.23 15.37 2.76 15.57C3.27 15.77 3.85 15.91 4.7 15.95C5.55 15.98 5.82 15.99 8 15.99C10.17 15.99 10.44 15.98 11.29 15.95C12.14 15.91 12.73 15.77 13.23 15.57C13.76 15.37 14.2 15.1 14.65 14.65C15.09 14.21 15.37 13.76 15.57 13.24C15.77 12.73 15.9 12.14 15.94 11.29C15.98 10.44 15.99 10.17 15.99 8C15.99 5.83 15.98 5.55 15.94 4.7C15.9 3.85 15.77 3.27 15.57 2.76C15.37 2.23 15.1 1.78 14.65 1.34C14.21 0.89 13.76 0.62 13.24 0.42C12.73 0.22 12.15 0.08 11.3 0.04C10.44 0 10.17 0 8 0Z" fill="#FFFFFF" fill-opacity="1.000000" fill-rule="nonzero"/>
		<path id="Vector" d="M8 3.89C5.73 3.89 3.89 5.73 3.89 8C3.89 10.26 5.73 12.1 8 12.1C10.27 12.1 12.11 10.26 12.11 8C12.11 5.73 10.27 3.89 8 3.89ZM8 10.66C6.53 10.66 5.33 9.47 5.33 8C5.33 6.52 6.53 5.33 8 5.33C9.47 5.33 10.66 6.52 10.66 8C10.66 9.47 9.47 10.66 8 10.66Z" fill="#FFFFFF" fill-opacity="1.000000" fill-rule="nonzero"/>
		<path id="Vector" d="M13.23 3.72C13.23 4.25 12.8 4.68 12.27 4.68C11.74 4.68 11.31 4.25 11.31 3.72C11.31 3.19 11.74 2.76 12.27 2.76C12.8 2.76 13.23 3.19 13.23 3.72Z" fill="#FFFFFF" fill-opacity="1.000000" fill-rule="nonzero"/>
	</g>
</svg>
