<svg width="16.000000" height="16.000000" viewBox="0 0 16 16" fill="none" xmlns="http://www.w3.org/2000/svg" xmlns:xlink="http://www.w3.org/1999/xlink">
	<desc>
			Created with Pixso.
	</desc>
	<defs>
		<clipPath id="clip13_2497">
			<rect id="LinkedIn - Negative" rx="-0.218845" width="15.562309" height="15.562309" transform="translate(0.218845 0.218845)" fill="white" fill-opacity="0"/>
		</clipPath>
	</defs>
	<rect id="LinkedIn - Negative" rx="-0.218845" width="15.562309" height="15.562309" transform="translate(0.218845 0.218845)" fill="#FFFFFF" fill-opacity="0"/>
	<g clip-path="url(#clip13_2497)">
		<path id="Vector" d="M14.81 0L1.18 0C0.53 0 0 0.51 0 1.15L0 14.84C0 15.48 0.53 16 1.18 16L14.81 16C15.47 16 16 15.48 16 14.84L16 1.15C16 0.51 15.47 0 14.81 0ZM4.74 13.63L2.37 13.63L2.37 5.99L4.74 5.99L4.74 13.63ZM3.56 4.95C2.79 4.95 2.18 4.34 2.18 3.58C2.18 2.82 2.79 2.2 3.56 2.2C4.32 2.2 4.93 2.82 4.93 3.58C4.93 4.33 4.32 4.95 3.56 4.95ZM13.63 13.63L11.26 13.63L11.26 9.92C11.26 9.03 11.24 7.89 10.03 7.89C8.79 7.89 8.6 8.86 8.6 9.85L8.6 13.63L6.23 13.63L6.23 5.99L8.51 5.99L8.51 7.04L8.54 7.04C8.86 6.44 9.63 5.8 10.78 5.8C13.19 5.8 13.63 7.38 13.63 9.44L13.63 13.63Z" fill="#FFFFFF" fill-opacity="1.000000" fill-rule="nonzero"/>
	</g>
</svg>
