<svg width="16.000000" height="16.000000" viewBox="0 0 16 16" fill="none" xmlns="http://www.w3.org/2000/svg" xmlns:xlink="http://www.w3.org/1999/xlink">
	<desc>
			Created with Pixso.
	</desc>
	<defs>
		<clipPath id="clip13_2499">
			<rect id="Pinterest - Negative" rx="-0.218845" width="15.562309" height="15.562309" transform="translate(0.218845 0.218845)" fill="white" fill-opacity="0"/>
		</clipPath>
	</defs>
	<rect id="Pinterest - Negative" rx="-0.218845" width="15.562309" height="15.562309" transform="translate(0.218845 0.218845)" fill="#FFFFFF" fill-opacity="0"/>
	<g clip-path="url(#clip13_2499)">
		<path id="Vector" d="M8 0C3.58 0 0 3.58 0 8C0 11.39 2.11 14.28 5.08 15.45C5.01 14.81 4.95 13.84 5.11 13.15C5.26 12.53 6.05 9.18 6.05 9.18C6.05 9.18 5.81 8.7 5.81 7.99C5.81 6.88 6.45 6.04 7.25 6.04C7.93 6.04 8.27 6.56 8.27 7.17C8.27 7.86 7.83 8.89 7.6 9.84C7.42 10.63 8 11.28 8.79 11.28C10.21 11.28 11.3 9.78 11.3 7.62C11.3 5.7 9.93 4.36 7.96 4.36C5.69 4.36 4.35 6.07 4.35 7.84C4.35 8.52 4.62 9.26 4.95 9.66C5.01 9.74 5.02 9.81 5 9.89C4.94 10.14 4.81 10.69 4.78 10.79C4.75 10.94 4.67 10.97 4.51 10.9C3.51 10.44 2.89 8.98 2.89 7.8C2.89 5.28 4.72 2.96 8.17 2.96C10.95 2.96 13.1 4.94 13.1 7.58C13.1 10.34 11.37 12.56 8.95 12.56C8.14 12.56 7.38 12.14 7.12 11.64C7.12 11.64 6.72 13.17 6.62 13.54C6.44 14.24 5.95 15.11 5.63 15.64C6.38 15.87 7.17 16 8 16C12.42 16 16 12.41 16 8C16 3.58 12.42 0 8 0Z" fill="#FFFFFF" fill-opacity="1.000000" fill-rule="nonzero"/>
	</g>
</svg>
