<svg width="16.000000" height="16.000000" viewBox="0 0 16 16" fill="none" xmlns="http://www.w3.org/2000/svg" xmlns:xlink="http://www.w3.org/1999/xlink">
	<desc>
			Created with Pixso.
	</desc>
	<defs>
		<clipPath id="clip13_2495">
			<rect id="Twitter - Negative" rx="-0.218845" width="15.562309" height="15.562309" transform="translate(0.218845 0.218845)" fill="white" fill-opacity="0"/>
		</clipPath>
	</defs>
	<rect id="Twitter - Negative" rx="-0.218845" width="15.562309" height="15.562309" transform="translate(0.218845 0.218845)" fill="#FFFFFF" fill-opacity="0"/>
	<g clip-path="url(#clip13_2495)">
		<path id="Vector" d="M5.03 14.5C11.06 14.5 14.37 9.49 14.37 5.16C14.37 5.02 14.36 4.87 14.36 4.73C15 4.27 15.55 3.69 15.99 3.03C15.4 3.3 14.76 3.47 14.11 3.55C14.8 3.14 15.31 2.49 15.55 1.73C14.91 2.11 14.21 2.38 13.47 2.53C12.98 2 12.32 1.65 11.61 1.54C10.89 1.42 10.16 1.54 9.53 1.88C8.89 2.22 8.38 2.77 8.08 3.42C7.79 4.08 7.71 4.82 7.87 5.52C6.57 5.46 5.29 5.12 4.13 4.53C2.96 3.94 1.93 3.11 1.11 2.09C0.69 2.82 0.56 3.67 0.75 4.49C0.94 5.3 1.43 6.01 2.13 6.47C1.6 6.46 1.09 6.32 0.64 6.07L0.64 6.11C0.64 6.86 0.9 7.6 1.38 8.19C1.86 8.77 2.53 9.18 3.27 9.33C2.79 9.46 2.28 9.48 1.79 9.38C2 10.03 2.41 10.6 2.96 11.01C3.51 11.42 4.17 11.65 4.86 11.66C3.69 12.58 2.26 13.07 0.78 13.07C0.52 13.07 0.25 13.05 -0.01 13.02C1.5 13.98 3.24 14.5 5.03 14.5Z" fill="#FFFFFF" fill-opacity="1.000000" fill-rule="nonzero"/>
	</g>
</svg>
