<svg width="165.773926" height="145.346436" viewBox="0 0 165.774 145.346" fill="none" xmlns="http://www.w3.org/2000/svg" xmlns:xlink="http://www.w3.org/1999/xlink">
	<desc>
			Created with Pixso.
	</desc>
	<defs>
		<clipPath id="clip13_2516">
			<rect id="Frame" rx="0.000000" width="38.449306" height="45.449306" transform="matrix(-0.965926 0.258819 0.258819 0.965926 37.9462 0.275346)" fill="white" fill-opacity="0"/>
		</clipPath>
	</defs>
	<rect id="Frame" rx="0.000000" width="38.449306" height="45.449306" transform="matrix(-0.965926 0.258819 0.258819 0.965926 37.9462 0.275346)" fill="#FFFFFF" fill-opacity="0"/>
	<g clip-path="url(#clip13_2516)">
		<path id="Vector" d="M32.35 19.18C24.12 17.04 15.9 14.9 7.67 12.76C5.34 12.15 3 11.56 0.67 10.92C0.35 10.83 0.04 10.56 0.32 10.25C0.61 9.95 1.28 9.99 1.64 10.08C9.9 12.11 18.12 14.34 26.34 16.48L33.36 18.3C33.7 18.39 34.02 18.68 33.72 18.99C33.42 19.31 32.73 19.27 32.34 19.17L32.35 19.18Z" fill="#FFFFFF" fill-opacity="1.000000" fill-rule="nonzero"/>
		<path id="Vector" d="M1.95 10.36C4.62 19.84 7.38 29.29 10.24 38.71C11.05 41.4 11.88 44.09 12.71 46.78C12.92 47.49 11.07 47.6 10.89 47.03C7.98 37.62 5.17 28.19 2.45 18.73C1.67 16.03 0.9 13.32 0.13 10.61C-0.07 9.89 1.79 9.78 1.95 10.36L1.95 10.36Z" fill="#FFFFFF" fill-opacity="1.000000" fill-rule="nonzero"/>
		<path id="Vector" d="M33.75 18.77C27.65 25.82 22.48 33.59 17.17 41.24C15.68 43.38 14.18 45.52 12.64 47.63C12.39 47.97 11.87 48.02 11.48 47.96C11.29 47.94 10.58 47.72 10.83 47.38C16.35 39.78 21.43 31.85 27.16 24.4C28.76 22.32 30.41 20.27 32.13 18.29C32.52 17.84 34.33 18.1 33.75 18.77L33.75 18.77Z" fill="#FFFFFF" fill-opacity="1.000000" fill-rule="nonzero"/>
		<path id="Vector" d="M2 10.07C8.66 14.4 15.26 18.83 21.78 23.36C23.64 24.65 25.49 25.95 27.34 27.26C27.7 27.51 27.24 27.83 27 27.9C26.59 28.04 26.07 27.99 25.72 27.74C19.23 23.15 12.68 18.66 6.06 14.27C4.17 13.02 2.27 11.78 0.38 10.54C0 10.3 0.49 9.97 0.71 9.9C1.14 9.76 1.63 9.83 2 10.06L2 10.07Z" fill="#FFFFFF" fill-opacity="1.000000" fill-rule="nonzero"/>
		<path id="Vector" d="M4.34 10.68C9.16 16.67 13.87 22.76 18.44 28.94C19.74 30.7 21.02 32.46 22.3 34.22C22.54 34.56 21.84 34.77 21.64 34.81C21.26 34.86 20.73 34.82 20.48 34.48C15.98 28.24 11.36 22.1 6.6 16.05C5.25 14.34 3.89 12.64 2.52 10.94C2.26 10.61 3 10.39 3.18 10.36C3.58 10.3 4.07 10.36 4.34 10.68Z" fill="#FFFFFF" fill-opacity="1.000000" fill-rule="nonzero"/>
		<path id="Vector" d="M22.38 33.76C24.12 35.27 25.92 36.68 27.7 38.13C28.02 38.39 27.64 38.67 27.38 38.74C26.99 38.86 26.5 38.83 26.16 38.58C24.31 37.23 22.55 35.73 20.81 34.22C20.5 33.94 20.87 33.67 21.14 33.59C21.51 33.49 22.07 33.48 22.38 33.76Z" fill="#FFFFFF" fill-opacity="1.000000" fill-rule="nonzero"/>
		<path id="Vector" d="M26.95 28.08C27.53 31.89 28.22 35.7 28.65 39.53C28.72 40.13 26.98 40.15 26.87 39.53C26.15 35.74 25.68 31.89 25.11 28.08C25.02 27.49 26.85 27.41 26.95 28.08Z" fill="#FFFFFF" fill-opacity="1.000000" fill-rule="nonzero"/>
		<path id="Vector" d="M25.63 39.56C24.68 39.06 23.7 38.6 22.71 38.18C21.71 37.76 20.72 37.44 19.7 37.04C19.39 36.92 19.36 36.61 19.62 36.44C19.95 36.22 20.44 36.22 20.8 36.32C21.89 36.62 22.96 37.06 23.99 37.5C25.03 37.93 25.99 38.39 26.96 38.9C27.08 38.96 27.23 39.08 27.23 39.23C27.23 39.38 27.08 39.5 26.96 39.56C26.58 39.75 26.01 39.76 25.63 39.56L25.63 39.56Z" fill="#FFFFFF" fill-opacity="1.000000" fill-rule="nonzero"/>
		<path id="Vector" d="M23.35 37.35C22.67 36.97 21.99 36.61 21.31 36.23C21.2 36.17 21.06 36.07 21.06 35.92C21.06 35.77 21.2 35.67 21.31 35.61C21.5 35.52 21.72 35.48 21.93 35.49C22.13 35.5 22.36 35.51 22.54 35.62C23.23 35.98 23.91 36.36 24.59 36.73C24.71 36.79 24.85 36.89 24.85 37.04C24.85 37.19 24.71 37.3 24.59 37.35C24.4 37.44 24.18 37.49 23.97 37.48C23.76 37.47 23.54 37.45 23.35 37.35Z" fill="#FFFFFF" fill-opacity="1.000000" fill-rule="nonzero"/>
		<path id="Vector" d="M25.64 37.65L25.82 37.69C26.03 37.73 25.69 37.66 25.86 37.69L25.01 38.42C23.84 37.67 22.64 36.97 21.42 36.29C21.31 36.22 21.17 36.13 21.17 35.98C21.17 35.83 21.31 35.73 21.42 35.67C21.77 35.51 22.3 35.48 22.65 35.67C23.88 36.34 25.07 37.05 26.24 37.81C26.34 37.87 26.51 37.97 26.49 38.12C26.48 38.24 26.41 38.31 26.31 38.38C25.98 38.59 25.54 38.58 25.18 38.49C25.04 38.46 24.91 38.43 24.77 38.4C24.52 38.34 24.17 38.05 24.46 37.8C24.78 37.54 25.26 37.57 25.64 37.65L25.64 37.65Z" fill="#FFFFFF" fill-opacity="1.000000" fill-rule="nonzero"/>
		<path id="Vector" d="M22.26 36.99C21.75 36.51 21.25 36.04 20.75 35.56C20.66 35.46 20.6 35.35 20.66 35.21C20.72 35.08 20.93 34.99 21.07 34.95C21.28 34.89 21.52 34.87 21.75 34.9C21.93 34.93 22.13 34.98 22.27 35.11C22.79 35.57 23.3 36.06 23.8 36.54C23.9 36.63 23.96 36.75 23.9 36.88C23.83 37.02 23.62 37.11 23.48 37.15C23.26 37.21 23.02 37.23 22.8 37.19C22.61 37.16 22.4 37.12 22.26 36.98L22.26 36.99Z" fill="#FFFFFF" fill-opacity="1.000000" fill-rule="nonzero"/>
		<path id="Vector" d="M22.21 35.85C22.04 36.21 21.88 36.58 21.7 36.94C21.67 37 21.61 37.06 21.54 37.09C21.47 37.15 21.39 37.18 21.3 37.21C21.19 37.24 21.08 37.25 20.97 37.26C20.85 37.27 20.74 37.27 20.62 37.25L20.41 37.21C20.29 37.17 20.19 37.12 20.09 37.05L20.01 36.94C19.97 36.87 19.97 36.79 20.01 36.71C20.16 36.34 20.33 35.98 20.49 35.62C20.53 35.55 20.58 35.5 20.65 35.47C20.72 35.41 20.81 35.37 20.9 35.35C21.01 35.32 21.12 35.3 21.23 35.3C21.35 35.28 21.46 35.29 21.59 35.3L21.8 35.35C21.91 35.38 22.02 35.43 22.12 35.51L22.21 35.61C22.25 35.69 22.25 35.77 22.21 35.85L22.21 35.85Z" fill="#FFFFFF" fill-opacity="1.000000" fill-rule="nonzero"/>
		<path id="Vector" d="M41.52 23.45L44.19 25C44.3 25.06 44.44 25.16 44.44 25.3C44.44 25.44 44.3 25.56 44.19 25.6C44.01 25.69 43.8 25.73 43.59 25.73C43.38 25.72 43.16 25.71 42.99 25.6L40.31 24.06C40.2 23.99 40.06 23.9 40.06 23.75C40.06 23.62 40.2 23.5 40.31 23.45C40.5 23.36 40.71 23.32 40.91 23.33C41.12 23.34 41.34 23.35 41.52 23.46L41.52 23.45Z" fill="#FFFFFF" fill-opacity="1.000000" fill-rule="nonzero"/>
		<path id="Vector" d="M35.83 28.97L40.7 31.79C40.81 31.86 40.95 31.95 40.95 32.1C40.95 32.24 40.81 32.35 40.7 32.41C40.36 32.57 39.82 32.61 39.48 32.41L34.6 29.59C34.49 29.52 34.35 29.43 34.35 29.28C34.35 29.14 34.49 29.03 34.6 28.97C34.94 28.81 35.49 28.77 35.83 28.98L35.83 28.97Z" fill="#FFFFFF" fill-opacity="1.000000" fill-rule="nonzero"/>
		<path id="Vector" d="M24.91 42.28C26.46 43.28 28.02 44.29 29.57 45.29C29.68 45.36 29.82 45.45 29.82 45.6C29.82 45.74 29.67 45.86 29.56 45.91C29.24 46.06 28.66 46.12 28.33 45.91C26.78 44.91 25.22 43.9 23.67 42.9C23.56 42.82 23.41 42.74 23.41 42.59C23.41 42.44 23.56 42.33 23.67 42.27C24 42.12 24.58 42.06 24.91 42.27L24.91 42.28Z" fill="#FFFFFF" fill-opacity="1.000000" fill-rule="nonzero"/>
		<path id="Vector" d="M14.49 49.46C16 50.3 17.5 51.14 19.01 51.98C19.12 52.04 19.27 52.14 19.27 52.28C19.27 52.43 19.12 52.54 19.01 52.59C18.66 52.76 18.13 52.79 17.77 52.59C16.26 51.76 14.75 50.92 13.24 50.08C13.13 50.02 12.98 49.91 12.98 49.77C12.98 49.62 13.13 49.51 13.24 49.46C13.59 49.29 14.13 49.26 14.49 49.46L14.49 49.46Z" fill="#FFFFFF" fill-opacity="1.000000" fill-rule="nonzero"/>
	</g>
	<path id="Vector" d="M40.14 49.56C51.34 60.02 80.01 80.34 105.13 77.92C108.32 77.61 111.17 76.88 113.71 75.81C142.97 63.54 112.25 15.02 86.13 33.04C52.2 56.44 88.98 109.46 124.74 129.96C137.43 137.23 151.45 142.95 165.7 144.83" stroke="#FFFFFF" stroke-opacity="1.000000" stroke-width="1.037953" stroke-dasharray="8.30363 8.30363"/>
</svg>
