<svg width="198.455078" height="183.437805" viewBox="0 0 198.455 183.438" fill="none" xmlns="http://www.w3.org/2000/svg" xmlns:xlink="http://www.w3.org/1999/xlink">
	<desc>
			Created with Pixso.
	</desc>
	<defs>
		<clipPath id="clip13_2554">
			<rect id="Frame" rx="0.000000" width="38.449306" height="45.449306" transform="matrix(0.866025 -0.5 -0.5 -0.866025 162.343 150.383)" fill="white" fill-opacity="0"/>
		</clipPath>
	</defs>
	<rect id="Frame" rx="0.000000" width="38.449306" height="45.449306" transform="matrix(0.866025 -0.5 -0.5 -0.866025 162.343 150.383)" fill="#FFFFFF" fill-opacity="0"/>
	<g clip-path="url(#clip13_2554)">
		<path id="Vector" d="M162.23 130.2C170.73 130.14 179.23 130.07 187.73 130.01C190.14 129.99 192.56 129.96 194.97 129.98C195.3 129.98 195.68 130.16 195.48 130.53C195.28 130.9 194.63 131.03 194.25 131.04C185.74 131.21 177.23 131.19 168.73 131.25L161.48 131.31C161.14 131.31 160.75 131.11 160.95 130.73C161.16 130.35 161.84 130.2 162.24 130.2L162.23 130.2Z" fill="#FFFFFF" fill-opacity="1.000000" fill-rule="nonzero"/>
		<path id="Vector" d="M193.88 130.85C188.85 122.39 183.73 113.97 178.54 105.61C177.06 103.22 175.56 100.84 174.07 98.46C173.67 97.83 175.43 97.23 175.75 97.74C180.99 106.08 186.15 114.46 191.24 122.89C192.69 125.3 194.13 127.72 195.57 130.13C195.95 130.78 194.19 131.36 193.88 130.85L193.88 130.85Z" fill="#FFFFFF" fill-opacity="1.000000" fill-rule="nonzero"/>
		<path id="Vector" d="M160.98 130.96C165.05 122.57 168.04 113.72 171.19 104.96C172.07 102.5 172.97 100.05 173.91 97.61C174.06 97.22 174.55 97.04 174.94 96.99C175.13 96.97 175.87 96.99 175.72 97.38C172.36 106.16 169.5 115.13 165.9 123.81C164.89 126.24 163.82 128.64 162.67 131C162.42 131.53 160.6 131.75 160.98 130.96L160.98 130.96Z" fill="#FFFFFF" fill-opacity="1.000000" fill-rule="nonzero"/>
		<path id="Vector" d="M193.91 131.14C186.35 128.69 178.84 126.11 171.36 123.42C169.23 122.66 167.11 121.88 164.98 121.1C164.57 120.94 164.93 120.52 165.14 120.38C165.5 120.15 166.02 120.06 166.43 120.21C173.88 122.97 181.37 125.61 188.9 128.13C191.05 128.85 193.2 129.56 195.35 130.26C195.78 130.4 195.39 130.84 195.19 130.97C194.82 131.22 194.33 131.28 193.91 131.14L193.91 131.14Z" fill="#FFFFFF" fill-opacity="1.000000" fill-rule="nonzero"/>
		<path id="Vector" d="M191.49 131.15C185.28 126.62 179.16 121.96 173.14 117.17C171.44 115.81 169.74 114.44 168.05 113.06C167.72 112.8 168.35 112.42 168.53 112.33C168.89 112.18 169.41 112.08 169.74 112.35C175.7 117.21 181.75 121.95 187.91 126.55C189.66 127.86 191.41 129.15 193.17 130.44C193.51 130.69 192.86 131.09 192.69 131.17C192.32 131.33 191.83 131.4 191.49 131.15Z" fill="#FFFFFF" fill-opacity="1.000000" fill-rule="nonzero"/>
		<path id="Vector" d="M168.09 113.54C166.02 112.53 163.91 111.63 161.82 110.69C161.45 110.52 161.74 110.15 161.97 110.01C162.31 109.8 162.8 109.7 163.19 109.85C165.33 110.68 167.42 111.68 169.48 112.69C169.86 112.87 169.57 113.22 169.33 113.37C169 113.57 168.46 113.72 168.09 113.54Z" fill="#FFFFFF" fill-opacity="1.000000" fill-rule="nonzero"/>
		<path id="Vector" d="M165.15 120.2C163.6 116.67 161.95 113.17 160.54 109.58C160.32 109.02 161.99 108.55 162.26 109.12C163.93 112.6 165.38 116.19 166.92 119.73C167.16 120.27 165.41 120.82 165.15 120.2Z" fill="#FFFFFF" fill-opacity="1.000000" fill-rule="nonzero"/>
		<path id="Vector" d="M163.45 108.77C164.5 109.01 165.56 109.2 166.63 109.35C167.7 109.5 168.74 109.55 169.83 109.67C170.16 109.71 170.26 110 170.06 110.23C169.8 110.53 169.33 110.65 168.95 110.65C167.82 110.64 166.68 110.49 165.56 110.34C164.45 110.19 163.4 109.99 162.34 109.76C162.21 109.73 162.02 109.65 161.99 109.51C161.95 109.36 162.07 109.2 162.17 109.11C162.48 108.83 163.03 108.68 163.45 108.77L163.45 108.77Z" fill="#FFFFFF" fill-opacity="1.000000" fill-rule="nonzero"/>
		<path id="Vector" d="M166.22 110.32C166.97 110.5 167.73 110.68 168.48 110.87C168.6 110.9 168.77 110.96 168.81 111.1C168.84 111.24 168.74 111.38 168.64 111.46C168.48 111.6 168.28 111.7 168.08 111.74C167.88 111.79 167.66 111.83 167.45 111.78C166.7 111.6 165.94 111.42 165.18 111.24C165.06 111.21 164.89 111.15 164.85 111C164.81 110.86 164.93 110.72 165.02 110.64C165.18 110.5 165.38 110.4 165.59 110.35C165.79 110.3 166.02 110.27 166.22 110.32Z" fill="#FFFFFF" fill-opacity="1.000000" fill-rule="nonzero"/>
		<path id="Vector" d="M163.93 110.62L163.75 110.63C163.54 110.64 163.88 110.62 163.71 110.63L164.34 109.71C165.67 110.13 167.01 110.5 168.36 110.84C168.48 110.88 168.65 110.93 168.69 111.07C168.72 111.22 168.61 111.35 168.52 111.44C168.23 111.69 167.72 111.85 167.33 111.75C165.98 111.43 164.64 111.05 163.31 110.62C163.2 110.59 163.01 110.53 162.99 110.39C162.97 110.27 163.02 110.17 163.1 110.09C163.36 109.8 163.78 109.69 164.16 109.69C164.3 109.69 164.44 109.67 164.58 109.67C164.84 109.66 165.26 109.85 165.03 110.16C164.79 110.5 164.32 110.6 163.93 110.62L163.93 110.62Z" fill="#FFFFFF" fill-opacity="1.000000" fill-rule="nonzero"/>
		<path id="Vector" d="M167.37 110.38C167.98 110.71 168.59 111.04 169.2 111.38C169.31 111.45 169.4 111.54 169.37 111.68C169.35 111.83 169.17 111.97 169.05 112.04C168.85 112.16 168.63 112.24 168.41 112.26C168.22 112.28 168.01 112.29 167.84 112.2C167.22 111.89 166.61 111.55 166 111.22C165.88 111.15 165.79 111.05 165.82 110.91C165.84 110.76 166.02 110.62 166.15 110.55C166.34 110.43 166.57 110.34 166.8 110.33C166.98 110.31 167.2 110.3 167.37 110.39L167.37 110.38Z" fill="#FFFFFF" fill-opacity="1.000000" fill-rule="nonzero"/>
		<path id="Vector" d="M167.71 111.47C167.78 111.08 167.84 110.68 167.92 110.28C167.94 110.21 167.98 110.15 168.03 110.1C168.09 110.03 168.16 109.97 168.24 109.92C168.34 109.87 168.44 109.82 168.54 109.79C168.65 109.74 168.77 109.72 168.89 109.7L169.1 109.69C169.22 109.69 169.34 109.71 169.45 109.77L169.56 109.84C169.62 109.91 169.64 109.98 169.62 110.07C169.56 110.46 169.5 110.86 169.44 111.25C169.42 111.33 169.38 111.39 169.32 111.44C169.27 111.51 169.19 111.57 169.11 111.61C169.01 111.67 168.91 111.72 168.8 111.75C168.69 111.79 168.58 111.82 168.46 111.84L168.24 111.85C168.12 111.85 168 111.82 167.89 111.78L167.77 111.7C167.71 111.63 167.69 111.56 167.71 111.47L167.71 111.47Z" fill="#FFFFFF" fill-opacity="1.000000" fill-rule="nonzero"/>
		<path id="Vector" d="M152.27 128.44L149.29 127.64C149.16 127.61 149 127.55 148.97 127.41C148.93 127.28 149.04 127.13 149.13 127.06C149.28 126.92 149.48 126.83 149.68 126.78C149.88 126.74 150.1 126.69 150.3 126.75L153.28 127.55C153.4 127.58 153.56 127.63 153.6 127.77C153.64 127.91 153.53 128.05 153.44 128.13C153.28 128.26 153.09 128.36 152.89 128.4C152.69 128.45 152.47 128.49 152.27 128.44L152.27 128.44Z" fill="#FFFFFF" fill-opacity="1.000000" fill-rule="nonzero"/>
		<path id="Vector" d="M156.34 121.64L150.9 120.17C150.78 120.14 150.62 120.09 150.58 119.94C150.55 119.81 150.65 119.66 150.75 119.58C151.03 119.33 151.55 119.16 151.92 119.26L157.37 120.72C157.49 120.76 157.65 120.82 157.69 120.96C157.73 121.09 157.62 121.24 157.52 121.32C157.24 121.57 156.72 121.74 156.34 121.63L156.34 121.64Z" fill="#FFFFFF" fill-opacity="1.000000" fill-rule="nonzero"/>
		<path id="Vector" d="M163.44 105.96C161.68 105.39 159.92 104.82 158.16 104.25C158.04 104.21 157.88 104.17 157.84 104.02C157.8 103.88 157.91 103.74 158 103.66C158.28 103.42 158.82 103.22 159.19 103.34C160.96 103.9 162.72 104.47 164.48 105.04C164.61 105.08 164.77 105.12 164.81 105.27C164.85 105.41 164.74 105.56 164.64 105.64C164.36 105.88 163.82 106.08 163.44 105.96L163.44 105.96Z" fill="#FFFFFF" fill-opacity="1.000000" fill-rule="nonzero"/>
		<path id="Vector" d="M171.65 96.32C169.98 95.9 168.31 95.48 166.63 95.06C166.51 95.03 166.34 94.97 166.3 94.83C166.26 94.69 166.38 94.55 166.47 94.47C166.77 94.22 167.27 94.05 167.67 94.15C169.34 94.57 171.02 94.98 172.69 95.4C172.82 95.43 172.99 95.5 173.02 95.64C173.06 95.78 172.95 95.92 172.86 96.01C172.56 96.26 172.05 96.42 171.65 96.33L171.65 96.32Z" fill="#FFFFFF" fill-opacity="1.000000" fill-rule="nonzero"/>
	</g>
	<path id="Vector" d="M146 102.6C132.48 95.39 99.52 83.19 75.89 92.03C72.89 93.15 70.32 94.59 68.14 96.28C43.06 115.71 85.29 154.62 105.86 130.46C132.58 99.08 83.32 57.38 43.47 46.84C29.33 43.09 14.32 41.2 0.06 43.08" stroke="#FFFFFF" stroke-opacity="1.000000" stroke-width="1.037953" stroke-dasharray="8.30363 8.30363"/>
</svg>
